{"glyphs":{"0":{"ha":1221,"x_min":76,"x_max":1146,"o":"m 1010 269 q 982 274 994 274 q 895 226 971 272 q 819 174 819 179 q 869 128 819 167 q 944 76 918 90 q 1010 58 979 58 q 1060 78 1040 58 q 1085 133 1081 97 q 1086 153 1086 140 q 1058 218 1086 174 q 1010 269 1026 265 m 915 304 q 992 324 954 324 q 1071 294 1039 324 q 1119 220 1093 274 q 1146 142 1146 167 q 1116 53 1146 99 q 1050 -3 1086 8 q 1040 -4 1047 -4 q 955 13 1011 -4 q 867 49 899 29 q 753 124 788 96 q 718 171 718 151 q 758 213 718 192 q 824 257 803 238 q 864 283 853 283 q 915 304 874 283 m 292 293 q 229 313 261 313 q 147 268 174 313 q 135 219 135 247 q 171 133 135 172 q 203 108 192 113 q 251 103 215 103 q 367 126 310 106 q 439 164 436 156 q 429 179 439 169 q 359 240 410 199 q 292 293 308 282 m 183 369 q 206 374 196 374 q 260 365 218 374 q 328 338 294 358 q 451 247 363 317 q 519 190 506 206 q 533 153 533 175 q 516 120 533 132 q 446 90 499 108 q 224 42 307 42 q 146 60 172 42 q 97 130 118 78 q 76 231 76 182 q 86 281 76 263 q 130 331 96 300 q 183 369 164 363 m 679 901 q 638 911 656 911 q 549 864 590 911 q 479 708 479 786 q 489 626 479 682 q 511 496 496 588 q 532 421 521 440 q 543 392 543 406 q 565 335 543 379 q 594 292 588 292 q 601 275 601 292 q 619 251 601 251 q 631 254 622 251 q 662 300 642 258 q 689 375 682 342 q 706 415 693 400 q 744 558 722 435 q 767 744 767 681 q 765 763 767 757 q 731 844 760 797 q 679 901 701 890 m 561 949 q 589 961 583 953 q 643 969 594 969 q 717 950 692 969 q 763 917 729 939 q 799 856 781 906 q 824 749 817 806 q 825 715 825 739 q 799 538 825 633 q 775 442 794 522 q 743 332 756 361 q 728 275 728 292 q 711 227 728 256 q 672 179 694 199 q 639 161 650 161 q 625 165 633 161 q 584 194 601 175 q 543 253 567 213 q 510 308 515 303 q 484 352 500 315 q 464 413 468 389 q 442 474 460 440 q 426 553 426 500 q 418 663 426 599 q 414 714 414 694 q 422 768 414 736 q 483 885 440 829 q 561 949 526 942 z "},"1":{"ha":1147,"x_min":74,"x_max":1072,"o":"m 389 432 q 335 443 349 443 q 308 433 321 443 q 296 414 296 421 q 308 389 296 406 q 340 371 321 371 q 382 388 361 371 q 403 417 403 404 q 389 432 403 428 m 160 600 q 232 622 200 619 l 235 622 q 344 596 288 622 q 417 538 400 569 q 460 414 460 451 q 440 364 460 388 q 347 317 401 317 q 321 321 333 317 q 260 361 282 333 q 239 421 239 389 q 260 477 239 453 q 318 508 281 501 q 343 519 343 513 q 319 540 343 528 q 236 561 286 561 q 190 551 204 561 q 156 501 169 538 q 142 424 142 464 q 163 343 142 375 q 242 278 190 301 q 354 254 293 254 q 449 269 407 254 q 573 346 517 292 q 654 465 629 400 q 713 522 669 507 q 869 536 757 536 l 910 536 q 1072 513 1072 535 q 1056 486 1072 506 q 954 468 1039 468 q 856 469 896 468 l 840 469 q 765 465 794 469 q 724 455 733 461 q 696 414 715 449 q 613 311 674 372 q 361 194 494 194 q 238 215 303 194 q 157 247 174 235 q 114 300 140 258 q 74 425 74 363 q 76 461 74 449 q 160 600 94 567 z "},"2":{"ha":1096,"x_min":75,"x_max":1022,"o":"m 753 515 q 718 531 731 531 q 697 519 708 531 q 689 505 688 510 q 706 488 690 500 q 744 472 729 468 q 767 493 767 478 q 753 515 767 506 m 753 688 q 775 689 757 689 q 832 686 793 689 q 933 656 893 682 q 1004 587 988 619 q 1022 471 1021 554 l 1022 458 q 940 281 1022 339 q 724 214 853 217 l 711 214 q 597 243 665 214 q 476 332 476 296 q 449 396 476 346 q 417 440 428 432 q 372 456 407 449 q 254 463 338 463 q 118 458 186 463 l 117 458 q 88 469 101 458 q 75 493 75 481 q 90 517 75 501 q 158 529 103 529 l 214 529 q 471 506 447 525 q 493 463 483 493 q 529 376 507 417 q 568 325 551 336 q 736 272 647 272 l 740 272 q 864 304 807 274 q 946 379 921 335 q 961 436 961 408 q 958 479 961 443 q 949 539 954 524 q 924 576 943 554 q 794 632 872 632 q 775 631 782 632 q 746 615 746 626 q 761 603 746 608 q 797 571 775 599 q 838 482 838 522 q 760 414 838 425 q 739 413 753 413 q 628 519 653 413 q 621 568 621 551 q 644 629 621 600 q 692 665 658 647 q 753 688 725 682 z "},"3":{"ha":1435,"x_min":78,"x_max":1357,"o":"m 1074 731 q 1078 747 1078 743 q 1076 751 1078 751 q 1022 692 1067 751 q 849 476 967 619 q 704 306 732 333 q 681 267 681 282 q 708 215 681 247 q 753 182 736 182 q 824 253 772 182 q 917 407 876 324 q 983 529 956 489 q 1019 603 1010 572 q 1049 676 1033 649 q 1074 731 1064 706 m 792 662 q 824 708 792 662 q 857 760 857 754 q 789 765 857 765 l 769 765 l 681 764 l 640 714 q 603 666 615 683 q 573 624 590 649 q 536 571 556 599 q 500 504 500 524 q 501 501 500 503 q 501 497 501 499 q 536 435 508 478 q 571 392 564 392 q 615 433 578 392 q 689 521 653 474 q 792 662 726 569 m 589 747 q 596 768 599 758 q 594 769 596 769 q 549 731 586 769 q 481 650 513 693 q 451 592 451 610 q 454 583 451 588 q 459 577 457 579 q 463 576 461 575 q 510 631 468 576 q 564 710 551 686 q 589 747 572 726 m 1032 794 q 1014 801 1032 804 q 965 789 986 800 q 933 767 943 778 q 907 732 924 757 q 883 697 890 707 q 724 475 757 518 q 632 339 632 360 l 633 336 l 635 336 q 685 378 644 336 q 760 463 726 419 q 824 539 778 485 q 894 626 871 593 q 981 728 928 669 q 1032 794 1032 788 m 472 806 q 368 850 390 836 l 367 850 q 364 840 364 850 q 389 721 364 790 q 413 672 407 675 l 414 672 q 463 722 424 672 q 503 783 503 771 q 472 806 503 794 m 275 978 q 292 986 281 986 q 363 949 317 986 q 444 894 401 915 q 739 821 540 851 q 745 820 740 821 q 753 819 750 819 q 999 867 839 819 q 1106 925 1069 889 q 1145 956 1132 951 q 1203 961 1158 961 q 1289 968 1265 961 q 1318 974 1311 974 q 1356 947 1349 974 q 1357 933 1357 942 q 1340 910 1357 917 q 1278 903 1324 904 q 1203 894 1214 903 q 1179 846 1192 883 q 1113 668 1138 717 q 1078 589 1088 621 q 972 383 1067 557 q 865 199 876 208 q 832 151 857 190 q 757 97 794 97 q 729 106 742 97 q 704 129 710 118 q 657 183 700 138 q 555 315 631 211 q 442 479 479 419 q 374 620 418 517 q 322 760 329 724 q 294 867 306 840 q 261 900 282 894 q 225 903 250 903 q 177 901 210 903 q 131 899 144 899 q 78 925 78 899 q 86 953 78 936 q 110 967 93 964 q 183 969 126 969 q 275 978 271 969 z "},"4":{"ha":1110,"x_min":71,"x_max":1039,"o":"m 140 601 q 133 613 140 608 l 131 613 q 122 543 122 613 q 126 375 122 492 q 138 172 132 214 q 165 114 144 131 q 240 100 181 103 q 535 96 299 97 l 715 96 q 914 110 885 96 q 960 159 950 128 q 971 289 971 190 l 971 354 q 947 607 969 599 q 928 590 936 613 q 810 442 911 550 q 692 332 728 354 q 515 283 615 283 q 422 300 461 283 q 403 307 413 304 q 388 310 393 310 q 383 310 383 311 q 372 319 383 308 q 342 349 361 329 q 299 392 322 368 q 192 516 243 447 q 140 601 140 585 m 903 710 q 849 717 889 717 q 681 708 803 717 q 581 703 658 707 q 471 697 504 699 q 325 689 343 692 q 214 676 244 678 q 192 663 192 676 q 222 594 192 647 q 334 458 254 539 q 454 358 414 376 q 513 343 486 343 q 546 346 518 343 q 647 378 607 353 q 763 479 688 403 q 919 685 919 640 q 903 710 919 699 m 697 768 q 917 775 896 774 l 928 775 q 968 753 953 775 q 1010 662 997 713 q 1029 504 1022 611 q 1039 274 1039 364 q 1038 203 1039 226 q 1031 147 1036 164 q 1010 110 1026 131 q 946 58 986 78 q 899 43 922 46 q 799 40 876 40 l 689 40 q 495 41 632 40 q 313 43 358 42 q 145 52 178 44 q 96 97 113 60 q 78 244 86 121 q 71 501 71 367 l 71 553 q 76 648 72 626 q 94 693 79 669 q 130 727 113 721 q 211 738 147 733 q 289 743 224 739 q 392 750 354 747 q 697 768 522 761 z "},"5":{"ha":1039,"x_min":75,"x_max":961,"o":"m 550 186 q 489 199 525 199 q 458 189 458 199 q 492 142 458 178 q 538 107 526 107 q 563 126 549 107 q 576 158 576 144 q 550 186 576 172 m 414 249 q 468 258 429 258 q 569 244 515 258 q 646 210 624 231 q 660 179 660 197 q 606 86 660 142 q 531 35 556 35 q 481 63 508 35 q 432 120 461 82 q 393 179 403 158 q 389 200 389 189 q 414 249 389 233 m 621 454 q 458 471 528 471 q 342 450 379 471 q 326 428 319 438 q 333 425 328 425 q 367 438 342 425 q 490 451 393 451 q 635 438 585 451 q 715 413 676 428 q 749 413 749 399 q 621 454 749 433 m 426 532 q 464 533 438 533 q 645 515 543 533 q 776 475 747 496 q 813 458 800 458 q 833 438 822 458 q 843 397 843 417 q 831 358 843 378 q 797 342 818 342 q 760 344 793 342 q 679 361 701 350 q 490 397 610 397 q 371 375 406 397 q 306 360 347 360 l 289 360 q 244 365 250 361 q 235 389 238 369 l 235 397 q 288 484 235 447 q 426 532 342 521 m 735 743 q 665 760 699 757 q 538 765 632 764 l 500 765 q 314 747 376 765 q 189 675 251 729 q 150 633 150 640 q 151 632 150 632 q 181 650 157 632 q 300 708 211 671 q 457 743 326 722 q 532 749 486 749 q 771 704 667 749 q 825 688 810 688 q 831 690 831 688 q 802 713 831 697 q 735 743 774 729 m 483 818 q 593 821 578 821 q 760 793 667 821 q 835 765 811 778 q 889 725 858 753 q 961 618 961 660 q 935 585 961 611 q 879 560 908 560 q 843 589 850 560 q 688 664 836 621 q 528 685 615 685 q 268 632 378 685 q 201 589 214 606 q 125 550 169 550 q 88 565 101 550 q 75 606 75 581 q 94 667 75 638 q 126 701 118 701 q 163 726 135 701 q 314 803 224 781 q 483 818 354 813 z "},"6":{"ha":958,"x_min":72,"x_max":881,"o":"m 354 192 q 358 201 358 197 q 349 207 358 207 q 299 196 339 207 q 252 174 265 186 q 233 138 239 163 q 228 116 233 133 q 224 92 224 99 q 231 82 224 82 q 294 128 242 82 q 354 192 346 175 m 807 610 q 794 618 807 618 q 750 599 769 618 q 706 511 706 549 q 714 500 706 500 q 769 544 732 500 q 807 610 807 589 m 553 769 q 479 783 507 783 q 413 776 464 783 q 279 737 342 765 q 194 675 217 708 q 153 582 176 650 q 129 488 129 514 q 142 389 129 458 q 163 313 156 319 q 169 290 169 303 q 136 197 169 260 q 129 150 129 181 q 138 99 129 111 q 146 90 142 90 q 167 136 150 90 q 350 268 210 256 q 389 299 389 272 q 383 314 389 303 q 344 331 372 331 q 303 321 322 331 q 257 308 278 308 q 232 318 240 308 q 222 447 222 329 q 232 582 222 563 q 413 672 279 672 q 554 647 479 672 l 622 624 l 622 593 q 611 538 622 560 q 607 500 599 514 q 622 482 615 482 q 639 511 631 482 q 722 650 667 606 q 767 676 757 676 q 802 688 781 676 q 824 706 824 699 q 807 735 822 718 q 778 753 792 751 l 775 753 q 771 754 772 754 q 721 742 753 754 q 661 728 683 728 q 624 740 642 728 q 553 769 604 754 m 425 838 q 483 842 458 842 q 600 818 533 842 q 676 799 653 799 q 710 804 683 799 q 771 810 736 810 q 822 806 810 810 q 853 779 833 801 q 876 748 871 760 q 881 708 881 736 l 881 685 q 867 589 881 626 q 814 507 853 551 q 734 434 768 453 q 651 414 700 415 l 631 414 q 597 418 607 414 q 571 439 588 422 q 549 468 553 457 q 544 506 544 479 l 544 525 l 544 546 q 541 577 544 571 q 528 586 538 583 q 503 594 526 586 q 464 606 479 601 q 401 615 433 615 q 313 585 347 615 q 291 553 294 568 q 288 485 288 539 q 294 413 288 431 q 319 394 300 394 q 335 396 329 394 q 340 397 336 396 q 344 397 343 397 q 396 382 365 397 q 446 293 446 357 q 444 260 446 272 q 391 140 439 200 q 272 39 343 79 q 203 17 232 17 q 192 17 200 17 q 178 18 183 18 q 85 61 113 22 q 74 119 79 71 q 72 150 72 131 q 85 224 72 181 q 97 281 97 264 q 89 328 97 294 q 75 444 75 383 q 122 651 75 557 q 244 785 168 746 q 331 815 269 797 q 425 838 393 833 z "},"7":{"ha":1100,"x_min":75,"x_max":1025,"o":"m 707 744 q 508 760 635 760 q 447 756 460 760 q 367 732 435 751 q 158 513 161 669 q 165 468 158 485 q 200 413 172 451 q 238 342 238 360 q 156 136 238 310 q 142 97 142 108 q 147 90 142 90 q 303 222 165 90 q 363 278 347 265 q 392 290 379 290 q 397 290 394 290 q 403 289 400 289 q 506 271 464 278 q 608 263 556 263 q 773 285 696 263 q 894 350 850 308 q 925 383 931 383 q 924 387 924 383 q 928 397 925 390 q 935 411 931 404 q 968 538 968 468 q 967 558 968 551 q 953 616 963 589 q 938 643 944 643 q 904 668 932 643 q 707 744 847 717 m 447 810 q 572 815 486 815 l 607 815 q 1007 656 913 807 q 1025 522 1025 628 q 1011 417 1025 436 q 993 375 996 396 q 943 313 990 354 q 849 249 896 272 q 731 214 808 229 q 593 199 654 199 q 481 213 553 199 q 408 222 432 222 q 403 222 406 222 l 399 221 q 306 144 382 217 q 194 48 231 72 q 128 24 158 24 q 75 61 75 24 q 122 192 75 94 q 164 311 164 279 q 131 396 164 342 q 101 486 101 446 l 101 504 q 167 676 106 608 q 282 758 204 721 q 447 810 360 794 z "},"8":{"ha":1179,"x_min":78,"x_max":1104,"o":"m 281 232 q 246 247 254 247 q 210 231 236 247 q 185 194 185 213 q 185 188 185 193 q 186 181 186 183 q 187 172 186 178 q 188 165 188 167 q 167 140 188 150 q 125 88 125 122 q 154 61 125 61 q 175 66 169 61 q 185 88 181 71 q 219 122 193 122 q 240 113 231 122 q 251 88 250 103 q 267 69 254 69 q 282 88 279 69 q 272 128 285 104 q 264 149 264 142 q 283 172 264 157 q 307 203 307 190 q 281 232 307 215 m 183 289 q 251 299 210 299 l 261 299 q 325 268 292 299 q 360 200 360 235 q 346 158 360 178 q 338 118 333 139 q 339 101 339 113 q 299 22 339 49 q 269 8 281 8 q 240 15 264 8 q 210 22 219 22 q 176 15 200 22 q 147 8 156 8 q 117 18 139 8 q 78 75 78 39 q 106 181 78 106 q 183 289 142 274 m 644 785 q 569 806 613 806 q 515 788 529 806 q 506 740 506 775 q 502 712 506 719 q 485 701 499 704 q 474 700 481 700 q 440 711 458 700 q 407 726 417 726 q 399 721 400 726 q 367 699 397 715 q 319 653 319 675 q 328 639 319 644 q 340 607 340 628 q 324 558 340 581 q 303 506 308 536 q 300 489 300 492 q 311 474 300 478 q 360 463 322 469 q 397 439 397 457 q 392 415 397 428 q 386 393 386 403 q 400 376 386 376 q 421 383 407 376 q 440 389 431 389 q 468 346 468 389 q 504 303 468 303 q 522 304 515 303 q 561 329 553 308 q 592 353 572 353 q 663 329 611 353 q 739 300 729 300 q 775 333 751 300 q 818 364 796 364 q 888 344 836 364 q 933 335 911 335 q 970 345 956 335 q 985 372 985 356 q 976 399 985 383 q 967 424 967 418 q 975 440 967 431 q 999 458 988 458 q 1026 478 1013 458 q 1043 524 1040 499 q 1044 543 1044 532 q 1019 572 1044 560 q 985 596 990 586 q 979 618 979 606 q 994 660 979 640 q 1004 682 1004 671 q 974 719 1004 703 q 915 736 944 736 q 890 726 896 736 q 872 717 885 717 q 833 749 849 717 q 782 794 819 779 q 736 806 758 806 q 706 785 711 806 q 683 769 701 769 q 644 785 667 769 m 351 751 q 393 768 357 751 q 436 785 429 785 q 468 807 446 785 q 588 860 518 860 q 642 851 613 860 q 671 847 658 847 q 711 856 686 847 q 760 868 746 868 l 761 868 q 811 851 778 868 q 861 817 844 833 q 933 792 882 796 q 1032 758 997 786 q 1067 682 1067 729 q 1065 664 1067 669 q 1063 643 1063 647 q 1082 596 1063 626 q 1104 532 1104 563 q 1088 467 1104 507 q 1057 415 1072 428 q 1044 393 1044 406 q 1028 344 1044 378 q 1007 313 1018 322 q 969 296 996 304 q 922 288 942 288 q 878 292 907 288 q 839 297 854 297 q 807 279 825 297 q 749 250 781 250 q 653 276 721 250 l 610 293 l 575 271 q 507 246 538 246 q 429 282 469 246 q 378 317 392 317 q 343 336 361 317 q 325 374 325 356 q 317 406 325 394 q 288 428 310 417 q 246 488 246 450 q 251 531 246 508 q 261 606 261 567 q 260 615 261 610 q 260 624 260 621 q 259 635 260 628 q 258 646 258 643 q 265 673 258 663 q 299 710 272 683 q 351 751 340 751 z "},"9":{"ha":892,"x_min":75,"x_max":817,"o":"m 375 907 q 421 926 399 926 q 465 917 440 926 q 506 872 492 908 q 533 692 533 793 l 533 675 q 539 593 533 593 q 596 606 546 593 q 675 618 646 618 q 751 586 715 618 q 803 519 792 550 q 815 397 814 488 q 816 368 815 386 q 817 344 817 350 q 804 268 817 289 q 786 181 790 249 q 763 92 783 118 q 735 19 746 72 q 708 -66 721 -44 q 656 -106 694 -87 q 536 -128 608 -128 q 429 -118 461 -128 q 347 -60 394 -107 q 293 14 299 -14 q 257 65 289 40 q 201 89 229 89 q 191 88 199 89 q 178 88 183 88 q 150 86 167 86 q 94 115 103 86 q 94 119 94 117 q 93 122 93 121 q 108 151 93 138 q 140 165 122 165 q 228 153 160 165 q 309 124 286 142 q 353 61 332 107 q 424 -33 382 -6 q 538 -60 465 -60 q 552 -59 542 -60 q 568 -58 563 -58 q 626 -52 613 -57 q 654 -31 640 -47 q 675 18 672 -8 l 675 42 l 624 36 q 533 26 563 31 q 513 25 525 25 q 476 49 494 25 q 460 90 460 71 q 479 110 460 110 l 482 110 q 640 101 611 101 q 692 113 671 101 q 725 160 725 131 q 718 182 725 171 q 703 189 714 189 q 636 176 690 189 q 508 153 543 153 q 474 158 489 153 q 442 181 454 164 q 431 218 431 199 q 435 239 431 231 q 460 257 443 257 q 481 244 472 257 q 542 224 493 224 q 672 251 601 224 q 754 310 743 278 q 760 332 760 326 q 740 346 760 346 q 633 319 721 346 q 503 294 549 294 q 460 303 476 294 q 419 361 419 321 q 425 393 419 378 q 451 437 435 424 q 518 467 468 450 q 581 479 558 479 q 607 461 607 479 q 574 429 607 438 q 532 406 561 426 q 503 374 503 386 q 507 365 503 369 q 525 358 518 358 q 632 386 535 358 q 724 419 701 407 q 747 450 747 431 q 742 478 747 463 q 711 528 732 514 q 642 542 690 542 q 606 540 619 542 q 514 529 529 535 q 485 542 500 525 q 472 576 475 553 q 469 679 469 600 q 457 822 469 797 q 429 849 443 849 q 394 815 414 849 q 360 671 372 776 q 340 542 347 563 q 303 497 333 521 q 259 474 276 478 q 178 468 242 469 l 128 468 q 93 472 100 468 q 81 488 86 475 q 75 511 75 500 q 156 540 75 540 q 246 553 224 543 q 294 685 285 571 q 375 907 310 853 z "},"\u0000":{"ha":347,"x_min":0,"x_max":0,"o":""},"\r":{"ha":347,"x_min":0,"x_max":0,"o":""}," ":{"ha":347,"x_min":0,"x_max":0,"o":""},"!":{"ha":438,"x_min":69,"x_max":360,"o":"m 239 131 q 207 149 226 149 q 174 135 189 149 q 160 101 160 122 q 163 85 160 89 q 176 82 165 82 q 184 83 178 82 q 194 83 190 83 q 244 114 244 88 q 239 131 244 124 m 151 210 q 192 214 172 214 q 271 190 240 214 q 301 125 301 167 q 283 56 301 93 q 169 -14 251 -12 q 96 12 122 -14 q 69 78 69 38 q 104 175 69 124 q 151 210 125 204 m 293 990 q 243 1003 283 1003 q 207 999 215 1003 q 192 981 199 996 q 183 828 183 960 q 186 536 183 669 q 191 398 189 421 q 203 375 193 375 q 231 405 222 375 q 244 513 240 435 q 272 743 250 614 q 300 956 300 900 q 293 990 300 981 m 85 990 q 118 1035 93 1013 q 167 1058 143 1058 l 172 1058 q 263 1047 204 1051 q 344 1022 325 1042 q 360 985 360 1006 q 357 946 360 979 q 328 767 351 881 q 301 567 301 635 q 267 346 301 399 q 181 275 219 275 q 143 292 161 275 q 108 313 129 306 q 95 336 97 317 q 93 449 93 356 q 85 664 93 572 q 76 858 76 751 q 85 990 76 967 z "},"\"":{"ha":1169,"x_min":75,"x_max":1094,"o":"m 611 553 q 601 574 611 564 q 585 583 592 583 q 558 563 572 583 q 551 551 553 556 q 549 544 549 547 q 551 540 549 542 q 557 538 553 539 q 572 535 565 535 q 599 540 586 535 q 611 553 611 546 m 565 660 q 649 676 599 676 q 694 668 682 676 q 724 588 724 650 q 719 553 724 569 q 688 478 713 515 q 640 433 664 442 q 588 425 619 425 q 519 438 542 425 q 481 499 481 458 q 508 594 481 532 q 565 660 531 642 m 764 1031 q 610 1060 678 1060 q 438 1000 511 1060 q 303 814 365 940 q 194 436 194 592 q 222 250 194 353 q 265 135 239 189 q 314 63 292 82 q 397 15 336 43 q 504 -26 457 -12 q 644 -43 567 -43 q 817 -22 736 -43 q 929 36 897 0 q 956 93 956 67 q 949 110 956 106 l 947 110 q 894 97 931 110 q 741 58 828 75 q 604 42 654 42 q 594 42 600 42 q 586 43 589 43 q 426 92 517 50 q 336 160 336 133 q 308 203 336 168 q 261 310 282 235 q 240 449 240 385 q 271 601 240 501 q 340 782 301 701 q 593 960 411 928 q 656 967 632 967 q 783 932 706 967 q 870 878 843 904 q 922 803 897 853 q 946 744 942 765 q 951 664 950 722 q 948 589 951 607 q 928 547 944 571 q 840 475 876 475 q 810 486 825 475 q 790 542 800 493 q 779 642 781 590 q 743 696 779 665 q 671 733 707 726 q 626 739 638 739 q 524 703 583 739 q 458 642 479 675 q 432 560 438 610 q 431 529 431 550 q 463 403 431 438 q 525 365 481 383 q 597 347 569 347 q 656 365 628 347 q 699 411 685 383 q 747 450 719 450 q 761 446 756 450 q 771 406 771 442 q 782 356 772 369 q 818 343 792 343 q 838 344 831 343 q 903 363 882 350 q 941 397 919 374 q 964 426 963 419 q 989 474 964 433 q 1035 664 1035 550 q 993 818 1035 769 q 976 851 982 829 q 933 917 969 875 q 867 982 897 960 q 764 1031 824 1013 m 569 1128 q 610 1131 594 1131 q 799 1086 726 1131 q 836 1069 829 1069 q 890 1037 846 1069 q 961 976 935 1004 q 1026 898 1007 928 q 1063 819 1044 868 q 1094 650 1094 731 q 989 340 1094 506 q 953 294 969 310 q 901 263 936 279 q 808 233 847 233 q 731 276 763 233 q 719 285 725 285 q 676 261 711 285 q 608 233 633 233 q 582 235 593 233 q 475 267 526 239 q 399 336 424 296 q 378 381 382 365 q 374 447 374 397 l 374 483 q 397 652 375 593 q 476 749 419 711 q 640 800 553 800 q 761 765 710 800 q 828 701 810 731 q 849 624 847 672 q 858 565 851 565 q 875 595 865 565 q 885 647 885 625 q 884 653 885 650 q 883 658 883 657 q 818 775 872 717 q 644 833 763 833 q 615 832 625 833 q 407 764 489 819 q 329 563 382 750 q 313 458 313 501 q 314 408 313 428 q 442 160 324 222 q 624 96 560 96 q 857 153 686 96 q 958 172 915 172 q 997 161 988 172 q 1013 110 1013 142 q 990 17 1013 72 q 963 -39 974 -25 q 919 -72 951 -53 q 708 -149 838 -122 q 594 -161 654 -161 q 336 -104 460 -161 q 154 43 213 -47 q 104 165 131 82 q 80 252 85 225 q 75 335 75 279 l 75 374 q 81 490 76 458 q 101 578 85 522 q 165 745 132 676 q 257 907 197 814 q 338 997 282 946 q 436 1067 394 1047 q 478 1094 478 1088 q 507 1113 478 1101 q 569 1128 536 1124 z "},"%":{"ha":1029,"x_min":78,"x_max":953,"o":"m 878 442 q 869 469 878 442 q 846 506 860 496 q 817 515 832 515 q 789 504 800 515 q 778 475 778 493 q 789 451 778 451 q 806 454 792 451 q 843 449 835 458 q 867 354 867 421 q 865 333 867 339 q 800 263 856 264 l 792 263 q 756 285 767 263 q 743 342 743 313 q 736 375 743 375 q 726 357 731 375 q 714 274 714 307 q 754 199 714 215 q 781 194 767 194 q 856 222 831 194 q 883 281 871 239 q 896 354 896 324 q 878 442 896 388 m 726 518 q 745 543 726 518 q 786 575 765 568 q 818 582 807 582 q 879 542 840 582 q 953 365 953 464 q 951 338 953 347 q 940 267 949 294 q 906 193 932 240 q 842 117 882 149 q 768 100 822 100 q 710 110 729 100 q 654 174 679 122 q 629 275 629 224 q 668 428 629 340 q 726 518 686 468 m 210 903 q 219 906 215 906 q 258 894 235 906 q 292 871 282 883 q 300 835 300 861 q 279 763 300 779 q 246 753 265 753 q 218 764 225 753 q 203 860 203 782 q 210 903 203 900 m 293 907 q 263 933 276 933 q 222 924 256 933 q 190 906 199 917 q 168 853 182 896 q 153 788 153 807 q 158 753 153 771 q 222 679 179 679 q 235 681 231 679 q 281 703 264 686 q 315 811 315 733 q 293 907 315 868 m 206 997 q 244 1010 229 1010 q 303 982 267 1010 q 379 815 379 925 q 364 721 379 774 q 335 647 347 664 q 292 613 324 629 q 213 593 250 593 q 157 604 186 593 q 119 629 129 615 q 92 688 108 643 q 78 765 78 725 q 96 872 78 810 q 138 942 106 906 q 206 997 169 979 m 796 946 q 785 963 796 963 q 746 937 771 963 q 696 871 721 911 q 615 746 671 829 q 532 614 546 643 q 407 400 501 550 q 226 89 226 122 q 233 82 226 82 q 282 130 244 82 q 372 253 319 178 q 425 329 424 328 q 540 494 483 408 q 597 590 597 581 q 618 628 597 606 q 726 797 657 672 q 796 946 796 921 m 740 1019 q 797 1026 757 1026 l 806 1026 q 867 1006 840 1026 q 891 980 886 990 q 896 944 896 969 q 888 897 894 921 q 872 847 882 874 q 858 806 863 819 q 700 554 836 733 q 557 354 640 475 q 372 96 418 151 q 297 40 325 40 q 246 28 276 40 q 200 17 217 17 q 160 69 160 17 q 160 78 160 72 q 161 88 161 83 q 181 148 164 117 q 263 276 199 179 q 405 503 342 397 q 468 619 468 608 q 478 640 468 631 q 521 708 486 649 q 700 981 583 813 q 740 1019 718 1010 z "},"&":{"ha":1072,"x_min":76,"x_max":999,"o":"m 361 369 q 324 400 333 400 q 294 365 314 400 q 274 279 274 328 q 296 210 274 231 q 394 178 328 178 q 526 218 475 178 q 531 226 531 222 q 449 300 531 243 q 361 369 383 346 m 319 492 q 382 533 368 533 q 411 515 393 533 q 593 336 533 374 q 631 307 624 315 q 638 275 638 299 q 615 217 638 247 q 558 168 592 186 q 530 151 543 161 q 503 133 517 140 q 464 118 489 125 q 397 107 426 107 q 254 158 336 107 q 221 205 235 169 q 207 275 207 240 q 239 390 207 329 q 319 492 271 451 m 439 794 q 403 801 421 801 q 363 793 383 801 l 343 785 l 365 744 q 415 690 392 690 q 453 724 432 690 q 465 761 465 744 q 439 794 465 785 m 357 914 q 442 926 393 926 q 525 911 497 926 q 559 878 550 896 q 574 818 568 861 q 575 793 575 810 q 554 724 575 754 q 479 657 533 694 q 403 625 435 625 q 353 654 372 625 q 336 679 350 658 q 315 708 322 700 q 281 817 281 757 q 288 854 281 838 q 312 891 299 879 q 357 914 325 903 m 479 961 q 390 971 435 971 q 211 879 258 971 q 201 817 201 861 q 214 722 201 764 q 268 635 228 675 q 310 576 310 593 q 263 513 310 557 q 204 446 221 475 q 174 357 188 417 q 161 274 161 306 q 179 199 161 239 q 255 109 207 138 q 386 75 303 81 q 405 74 393 75 q 421 74 417 74 q 515 90 465 74 q 586 122 572 108 q 653 177 600 135 q 718 226 707 219 q 729 231 725 231 q 757 203 750 231 q 822 132 763 182 q 900 83 881 83 l 903 83 q 929 103 929 85 q 890 151 929 121 q 788 267 788 231 q 825 354 788 317 q 878 431 851 379 q 904 506 904 482 q 901 515 904 513 q 894 518 899 518 q 853 498 881 518 q 803 449 826 478 q 763 393 763 399 q 746 368 763 385 q 713 350 729 350 q 614 419 688 350 q 515 503 535 493 q 472 560 472 524 q 475 574 472 565 q 525 625 479 588 q 585 683 575 667 q 610 717 601 708 q 633 794 633 740 q 629 836 633 815 q 583 917 618 888 q 479 961 549 946 m 336 1033 q 410 1040 364 1040 q 606 994 531 1040 q 667 923 643 971 q 693 818 690 875 l 693 800 q 675 717 693 754 q 607 626 657 681 l 551 565 l 579 543 q 653 478 599 529 q 708 433 700 433 q 743 464 718 433 q 831 551 792 525 q 913 576 869 576 q 953 558 942 575 q 968 494 964 542 q 969 463 969 482 q 956 403 969 429 q 904 332 943 378 q 863 275 863 282 q 931 211 863 267 l 999 154 l 994 108 q 983 42 989 56 q 946 7 976 28 q 906 -14 922 -10 q 853 -18 890 -18 q 798 -13 811 -18 q 753 21 785 -8 q 704 65 717 53 l 703 65 q 658 36 692 65 q 394 -50 568 -46 l 374 -50 q 260 -42 296 -50 q 163 14 208 -28 q 93 113 118 56 q 76 228 76 150 q 85 313 76 275 q 107 377 93 346 q 126 408 121 408 q 142 436 132 408 q 175 500 157 475 q 194 539 194 529 q 188 561 194 544 q 154 651 174 588 q 133 738 135 715 l 133 751 q 161 908 133 847 q 229 986 182 953 q 336 1033 276 1019 z "},"'":{"ha":389,"x_min":75,"x_max":313,"o":"m 233 876 q 179 892 213 892 q 167 889 169 892 q 160 868 160 882 q 176 838 160 838 q 188 843 182 838 q 221 851 196 851 q 244 861 244 851 q 233 876 244 868 m 157 964 q 181 965 164 965 q 258 947 229 965 q 313 807 313 913 l 313 789 q 264 704 311 749 q 176 660 217 660 q 155 673 164 660 q 146 703 146 686 q 147 715 146 711 q 149 725 149 719 q 114 772 149 742 q 81 807 88 796 q 75 846 75 818 q 157 964 75 951 z "},"+":{"ha":808,"x_min":75,"x_max":733,"o":"m 438 618 q 428 713 439 650 q 401 776 417 776 q 390 689 390 776 q 378 591 390 614 q 329 567 367 568 q 196 563 225 565 q 167 551 167 561 q 219 542 167 543 q 283 541 269 540 q 323 535 297 542 q 351 526 349 529 q 363 502 354 522 q 371 467 371 482 q 372 411 371 453 q 390 310 376 310 q 406 331 397 310 q 414 388 414 350 l 414 415 q 433 487 414 472 q 525 508 451 501 q 619 526 581 514 q 657 550 657 538 q 600 569 657 569 q 560 567 588 569 q 510 564 526 564 q 469 567 486 564 l 436 572 l 438 618 m 347 838 q 408 851 372 851 q 436 847 428 851 q 451 829 444 843 q 477 747 460 813 q 500 647 494 681 q 516 634 503 636 q 588 631 529 632 l 674 631 l 703 597 q 733 547 733 564 q 673 465 733 504 q 535 418 613 425 l 478 413 l 474 367 q 440 260 468 318 q 411 208 419 217 q 383 199 403 199 q 299 238 338 199 q 277 280 285 251 q 258 389 269 308 q 214 425 254 425 q 192 422 208 425 q 179 421 189 421 q 128 428 156 421 q 93 440 101 435 q 79 464 85 446 q 75 490 75 476 q 126 593 75 542 q 166 623 153 618 q 219 631 179 628 q 282 633 281 633 q 292 696 286 636 q 347 838 299 813 z "},",":{"ha":394,"x_min":75,"x_max":324,"o":"m 239 106 q 186 129 213 129 q 157 118 167 129 q 149 97 149 110 q 174 74 149 74 q 220 63 199 74 q 242 38 242 51 q 250 32 242 21 q 258 61 258 44 q 239 106 258 89 m 161 182 q 215 189 193 189 q 295 161 267 189 q 324 82 324 133 q 322 61 324 68 q 283 -30 317 17 q 214 -86 249 -76 q 164 -92 183 -92 l 156 -92 q 132 -84 136 -89 q 126 -56 128 -79 q 104 -12 125 -22 q 75 54 75 0 q 93 129 75 94 q 161 182 115 172 z "},"-":{"ha":603,"x_min":75,"x_max":529,"o":"m 396 454 q 233 463 299 463 q 179 460 204 463 q 139 436 140 454 q 147 411 136 419 q 243 399 154 406 q 394 392 332 392 q 438 394 426 392 q 456 418 456 400 q 444 440 456 433 q 396 454 436 449 m 110 500 q 133 521 124 517 q 175 525 143 525 l 199 525 q 339 518 288 522 q 385 517 354 517 q 439 519 419 517 q 458 522 456 522 q 494 497 471 522 q 529 400 529 460 q 524 368 529 379 q 514 335 514 351 q 497 304 514 318 q 378 289 482 289 l 324 289 q 83 308 103 289 q 75 368 75 317 q 82 443 75 408 q 110 500 86 471 z "},".":{"ha":386,"x_min":75,"x_max":314,"o":"m 235 121 q 228 158 240 133 q 193 183 215 183 q 165 161 174 183 q 161 128 157 139 q 203 103 169 103 q 235 121 226 103 m 138 222 q 207 239 165 239 l 221 239 q 269 233 260 238 q 296 206 279 229 q 314 164 314 182 q 308 118 314 147 q 292 62 301 75 q 239 14 283 49 q 182 -1 221 -1 q 113 28 144 -1 q 75 103 75 63 q 83 138 75 121 q 100 182 94 160 q 138 222 104 201 z "},"/":{"ha":722,"x_min":78,"x_max":646,"o":"m 556 935 q 567 975 567 968 q 560 990 567 983 q 540 996 550 1000 q 488 883 528 990 q 424 735 450 792 q 410 705 415 717 q 407 693 406 693 q 403 683 408 693 q 390 657 399 672 q 369 610 369 621 q 311 482 369 596 q 251 356 251 360 q 240 322 251 344 q 156 96 156 124 l 157 92 q 158 90 157 90 q 186 118 165 90 q 222 178 207 146 q 264 263 224 181 q 347 431 304 344 q 426 598 389 518 q 465 689 464 678 q 504 797 467 701 q 532 872 514 822 q 556 935 550 922 m 506 1049 q 554 1060 532 1060 q 621 1027 596 1060 q 646 940 646 994 q 645 929 646 936 q 644 919 644 922 q 593 785 640 883 q 544 668 544 685 q 514 572 544 650 q 463 458 483 493 q 414 367 418 375 q 245 41 274 92 q 199 -18 217 -10 q 169 -24 188 -24 q 99 6 125 -24 q 78 57 78 29 q 118 188 78 99 q 217 408 175 319 q 344 701 344 682 q 382 786 344 708 q 438 922 422 868 q 471 1016 458 993 q 506 1049 483 1039 m 311 1111 q 311 1107 311 1111 q 307 1103 311 1103 q 299 1113 303 1103 q 301 1119 296 1119 q 311 1111 311 1119 z "},":":{"ha":1206,"x_min":75,"x_max":1129,"o":"m 463 528 q 372 547 400 547 q 357 542 357 547 q 392 528 357 536 q 426 517 426 521 q 501 461 426 508 q 753 376 628 376 q 965 451 872 376 q 997 485 997 475 q 993 486 997 486 q 908 454 974 486 q 765 419 838 419 q 715 424 740 419 q 633 443 665 431 q 550 486 600 456 q 463 528 496 517 m 1025 615 q 1093 674 1074 674 q 1115 667 1101 674 q 1129 644 1129 658 q 1126 615 1129 640 q 1099 526 1122 579 q 1026 431 1079 483 q 931 358 972 378 q 897 343 917 353 q 868 331 876 333 q 840 324 860 328 q 786 315 819 319 q 725 311 746 311 q 683 318 701 311 q 624 336 654 332 q 544 360 578 344 q 451 414 511 375 q 322 479 349 479 q 314 475 317 479 q 281 467 308 467 q 208 447 254 467 q 143 410 161 428 q 110 393 126 393 q 89 397 101 393 q 75 436 75 404 q 86 475 75 464 q 197 559 158 535 q 279 593 236 583 q 324 610 319 603 q 350 617 328 617 q 438 603 385 617 q 511 574 492 589 q 603 525 525 563 q 683 493 661 499 q 761 488 706 488 q 840 492 818 488 q 908 521 861 497 q 972 558 951 542 q 1025 615 993 575 z "},"?":{"ha":1201,"x_min":75,"x_max":1128,"o":"m 1099 597 q 1098 608 1096 606 q 1108 607 1100 610 q 1128 581 1128 604 q 1117 567 1128 567 q 1104 575 1104 567 q 1099 597 1104 583 m 936 542 q 917 549 936 549 q 833 535 888 549 q 740 501 779 521 q 506 460 683 474 q 439 457 461 457 q 272 481 324 457 q 240 490 251 490 q 233 486 233 490 q 249 465 233 479 q 290 439 265 451 q 457 401 369 401 q 497 403 483 401 q 609 422 556 407 q 836 500 663 438 q 935 533 933 533 q 936 542 936 533 m 89 656 q 117 667 104 667 q 168 628 139 667 q 219 571 199 586 q 289 538 240 556 q 354 520 326 524 q 450 517 382 517 q 756 575 639 517 q 897 624 853 624 q 950 614 917 624 q 1015 581 997 599 q 1072 532 1028 568 q 1113 469 1113 500 q 1101 443 1113 454 q 1071 433 1092 433 q 1053 442 1053 433 q 1035 467 1053 449 q 997 482 1018 482 q 990 481 996 482 q 982 481 985 481 q 819 428 922 471 q 440 339 610 339 q 369 346 394 339 q 235 395 282 368 q 151 472 189 422 q 110 524 122 511 q 75 615 75 558 q 89 656 75 646 z "},"@":{"ha":1256,"x_min":78,"x_max":1182,"o":"m 411 471 q 331 501 369 501 q 297 489 308 501 q 260 420 288 479 q 232 350 233 361 q 188 249 229 333 q 144 138 144 160 q 149 118 144 121 q 171 119 153 115 q 220 138 192 124 q 254 158 249 151 q 371 221 260 167 q 511 301 482 275 l 538 328 l 522 357 q 411 471 497 406 m 253 536 q 272 571 265 565 q 307 576 279 576 q 495 481 385 576 q 606 319 606 386 q 560 260 606 293 q 403 171 515 226 q 250 90 256 99 q 208 63 243 79 q 147 43 172 47 q 139 42 144 43 q 132 42 133 42 q 97 57 113 42 q 78 107 78 76 q 139 283 78 160 q 206 433 156 317 q 231 489 214 451 q 253 536 249 526 m 933 700 q 994 708 971 708 q 1056 697 1018 708 q 1131 649 1097 685 q 1175 568 1164 614 q 1182 518 1182 538 q 1147 421 1182 474 q 1085 368 1118 378 q 1022 358 1054 358 q 937 392 968 358 q 904 485 906 425 l 904 504 q 909 535 904 526 q 932 560 914 544 q 993 583 960 583 q 1038 569 1018 583 q 1063 529 1057 554 q 1065 511 1065 515 q 1036 483 1065 483 q 1006 504 1017 483 q 986 524 996 524 q 965 496 974 524 q 960 472 960 476 q 974 443 960 461 q 1026 411 997 411 q 1093 447 1060 411 q 1128 529 1128 483 q 1081 622 1128 581 q 997 654 1046 654 q 906 629 953 654 q 854 610 867 610 q 752 551 832 610 q 672 475 672 492 q 656 458 672 468 q 621 464 638 449 q 610 488 610 475 q 697 586 610 524 q 817 655 738 617 q 933 700 896 693 m 410 1056 q 454 1061 428 1061 q 624 974 558 1061 q 654 894 654 935 q 506 703 654 813 q 429 642 451 664 q 403 631 418 631 q 372 646 383 631 q 367 661 367 651 q 424 718 367 685 q 549 813 501 763 q 597 899 597 863 q 558 976 597 940 q 472 1011 518 1011 q 426 1002 439 1011 q 413 968 413 993 q 422 946 413 954 q 444 938 432 938 q 471 947 460 938 q 497 960 486 960 q 522 939 514 960 q 526 918 526 929 q 478 883 526 888 q 457 882 471 882 q 358 946 381 882 q 356 965 356 957 q 372 1022 356 994 q 410 1056 388 1050 m 758 1078 q 793 1082 775 1082 q 922 1033 869 1082 q 961 976 940 1017 q 982 918 982 936 q 935 832 982 897 q 857 742 889 767 q 763 684 828 719 q 647 629 697 649 q 532 563 601 611 q 513 554 522 554 q 489 593 489 554 q 503 626 489 615 q 593 668 518 636 q 874 843 804 756 q 905 888 899 874 q 911 929 911 901 q 906 967 911 957 q 879 999 900 978 q 822 1028 849 1028 q 814 1027 819 1028 q 804 1026 808 1026 q 767 1020 774 1024 q 758 1001 760 1017 l 758 992 q 764 979 758 979 q 783 994 772 979 q 806 1010 797 1010 q 819 1004 813 1010 q 835 974 835 997 q 824 943 835 954 q 769 922 807 922 q 714 943 731 922 q 697 992 697 964 q 714 1045 697 1021 q 758 1078 731 1069 z "},"A":{"ha":811,"x_min":75,"x_max":736,"o":"m 276 429 q 301 442 286 442 q 324 432 314 442 q 335 407 335 422 q 322 386 335 397 q 297 375 308 375 q 279 396 292 375 q 276 429 265 417 m 279 521 q 306 542 285 542 q 323 538 319 542 q 326 518 326 533 q 308 488 326 492 q 297 486 304 486 q 278 507 278 486 q 279 521 278 515 m 326 753 q 343 760 338 760 q 360 742 351 760 q 365 722 365 732 q 343 701 365 701 q 325 712 332 701 q 318 735 318 722 q 326 753 318 747 m 343 924 q 367 951 351 951 q 383 933 378 951 q 388 913 388 922 q 361 871 388 875 l 357 871 q 338 893 338 871 q 343 924 338 907 m 432 233 q 422 261 438 246 q 285 276 407 276 q 169 258 169 276 q 211 113 169 222 q 317 65 229 65 q 391 90 368 65 q 422 178 414 114 q 432 233 424 194 m 676 732 q 661 749 672 749 q 644 736 653 749 q 640 722 638 725 q 657 718 643 718 q 673 722 668 718 q 676 732 678 725 m 374 986 q 329 1001 347 1001 q 278 975 306 1001 q 260 950 260 957 q 279 926 260 942 q 310 886 300 911 q 317 864 317 869 q 307 846 317 856 q 286 836 299 836 q 262 848 272 836 q 251 876 251 860 q 238 908 251 908 q 229 903 233 908 q 219 833 219 888 q 243 685 219 725 q 256 692 250 672 q 268 710 260 710 q 285 697 275 710 q 292 676 292 689 q 265 636 292 650 q 243 617 243 628 q 219 600 243 611 q 200 596 208 596 q 174 606 189 596 q 150 614 160 614 q 133 588 133 614 q 134 582 133 586 q 135 575 135 578 q 163 542 136 549 q 222 499 203 531 q 256 385 240 468 q 276 344 261 356 q 322 333 290 333 l 331 333 q 361 342 356 333 q 378 403 367 351 q 413 479 389 460 q 510 508 436 499 q 622 525 604 519 q 649 553 639 531 q 664 611 658 581 q 665 629 665 618 q 650 656 665 644 q 628 667 632 667 q 619 635 619 667 q 599 581 619 603 q 574 542 579 561 q 550 526 569 526 q 515 542 531 526 q 485 553 503 553 q 447 550 464 553 q 408 547 414 547 q 367 574 376 547 q 365 586 365 576 q 403 749 365 656 q 419 831 411 771 q 422 871 422 858 q 374 986 422 954 m 283 1044 q 331 1051 304 1051 q 440 994 399 1051 q 483 867 483 935 q 464 739 483 821 q 444 633 444 660 q 453 617 444 617 q 463 616 456 617 q 474 615 469 615 q 549 626 538 615 q 557 668 554 632 q 582 749 557 699 l 607 797 l 649 800 l 663 800 q 714 781 693 800 q 732 760 728 768 q 736 735 736 753 q 733 686 736 731 q 719 557 726 586 q 690 501 713 528 q 635 465 668 476 q 529 447 603 454 q 468 432 485 443 q 443 390 451 421 q 441 382 442 386 q 440 375 440 378 q 438 369 439 372 q 438 365 438 367 q 465 329 438 353 q 492 303 488 313 q 497 265 497 293 l 497 243 q 477 124 496 186 q 435 39 458 63 q 404 19 418 22 q 338 15 390 15 q 179 43 199 18 q 135 161 171 54 q 104 269 104 251 q 111 296 104 279 q 147 329 128 325 q 185 343 179 336 q 192 379 192 350 q 178 450 192 426 q 131 488 165 474 q 85 520 96 501 q 75 586 75 539 q 89 647 75 626 q 138 675 103 668 q 163 684 157 679 q 169 700 169 689 l 169 707 q 165 814 168 721 q 165 838 165 824 q 164 857 164 853 q 190 953 164 900 q 283 1044 225 1028 z "},"B":{"ha":938,"x_min":75,"x_max":858,"o":"m 471 454 q 460 488 460 469 q 469 513 460 503 q 494 524 478 524 l 500 524 q 517 516 514 522 q 524 490 521 510 q 524 482 524 488 q 525 475 525 476 q 504 449 525 458 q 471 454 482 438 m 556 561 q 464 583 529 583 q 379 567 413 583 q 328 531 343 547 q 299 482 314 515 q 263 442 282 442 q 210 476 244 442 q 171 506 181 506 q 168 503 168 506 q 186 475 168 494 q 208 414 208 449 q 190 354 208 382 q 181 329 181 336 q 182 325 181 325 q 210 349 190 325 q 275 390 244 390 q 328 365 299 390 q 385 333 356 342 q 469 325 415 325 q 544 338 518 325 q 592 386 569 350 q 607 446 607 413 q 556 561 607 522 m 404 643 q 451 649 429 649 q 565 626 524 649 q 639 549 608 604 q 669 440 669 494 q 667 414 669 431 q 649 355 660 375 q 608 306 638 335 q 569 277 583 282 q 490 268 554 272 q 438 267 468 267 q 340 286 393 267 q 281 303 290 303 q 201 264 261 303 q 143 242 169 242 q 108 254 125 242 q 90 290 90 267 q 119 365 90 319 q 143 417 143 403 q 119 454 143 421 q 75 568 75 514 q 81 590 75 585 q 103 599 86 596 l 108 599 q 149 589 132 599 q 242 549 218 549 q 292 581 264 549 q 342 617 308 599 q 404 643 375 636 m 710 689 q 697 700 710 700 q 678 686 678 700 q 683 675 678 681 q 701 672 692 667 q 710 689 710 676 m 660 750 q 697 764 683 764 q 742 749 711 764 q 763 731 758 739 q 768 704 768 722 q 746 642 768 665 q 694 618 724 618 q 629 664 651 618 q 621 696 621 681 q 660 750 621 728 m 764 944 q 792 951 782 951 q 831 933 811 951 q 858 876 858 910 q 838 829 858 849 q 783 810 818 810 q 738 822 750 810 q 721 868 725 833 q 719 882 719 872 q 764 944 719 925 z "},"C":{"ha":1265,"x_min":75,"x_max":1190,"o":"m 179 363 q 171 363 179 372 l 167 357 q 165 351 164 351 q 169 353 167 351 q 179 363 179 358 m 664 431 l 442 426 l 394 472 q 353 506 358 506 q 351 504 351 506 q 352 500 351 503 q 353 496 353 497 q 342 471 353 483 q 318 458 331 458 q 285 479 308 458 q 253 500 263 500 q 244 479 244 500 l 244 468 q 245 460 244 465 q 246 453 246 454 q 231 426 246 433 q 213 397 213 415 q 221 388 213 388 q 225 389 222 388 q 231 390 226 390 q 251 377 242 390 q 261 349 261 364 q 260 344 261 347 q 260 340 260 342 q 258 329 258 336 q 264 317 258 317 q 275 332 271 317 q 306 371 281 349 q 338 389 324 389 q 363 346 358 389 q 372 317 365 317 q 396 353 378 317 q 424 397 414 393 q 646 410 433 404 q 872 424 856 414 l 874 425 q 757 431 874 431 l 664 431 m 1033 521 q 960 550 971 550 q 951 540 951 550 q 954 525 951 539 q 956 510 956 519 q 947 469 956 489 q 924 446 938 450 q 908 435 908 442 q 928 421 908 429 q 950 383 946 413 q 972 351 954 351 q 1043 396 994 351 q 1103 454 1093 440 q 1106 467 1106 458 q 1033 521 1106 486 m 900 621 q 925 635 922 635 q 988 611 935 635 q 1057 576 1042 588 q 1122 544 1081 560 q 1190 475 1190 519 q 1189 464 1190 468 q 1119 379 1183 442 q 1021 300 1056 317 q 943 276 969 276 q 892 325 904 276 l 882 358 l 769 353 q 583 346 717 350 q 467 336 481 343 q 439 304 457 331 q 357 250 400 250 q 332 260 344 250 q 310 274 315 274 q 279 253 300 274 q 240 235 261 235 q 203 263 215 235 q 179 281 193 281 q 157 278 176 281 q 121 275 143 275 q 79 310 79 275 q 100 368 79 336 q 121 404 121 400 q 99 439 121 408 q 76 499 79 465 l 75 529 l 114 528 l 131 528 q 151 531 147 528 q 154 546 154 533 q 168 576 154 565 q 182 582 174 582 q 218 569 192 582 q 258 556 249 556 q 272 576 272 556 q 287 606 272 593 q 321 618 301 618 q 365 589 347 618 q 390 558 388 558 q 432 525 399 558 l 468 490 l 667 493 q 878 508 864 497 q 886 535 886 514 q 885 563 886 551 q 883 590 883 574 q 900 621 883 610 z "},"D":{"ha":1283,"x_min":75,"x_max":1210,"o":"m 289 496 q 269 533 279 533 q 199 472 260 533 q 143 404 143 418 q 146 394 143 400 q 203 346 157 376 q 272 310 250 315 q 294 308 290 306 q 293 325 297 310 q 282 374 282 357 q 289 394 282 388 q 361 422 304 414 q 585 431 418 429 q 822 443 806 435 q 840 447 831 447 q 897 394 879 447 q 921 356 910 356 q 932 378 928 356 q 960 408 936 408 q 1011 378 982 408 q 1044 353 1036 353 q 1049 356 1049 353 q 1038 378 1049 360 q 1029 403 1029 392 q 1058 431 1029 425 q 1086 454 1081 435 q 1090 474 1090 469 q 1071 488 1090 482 q 1050 504 1050 493 q 1035 522 1050 522 q 1014 511 1025 522 q 958 490 990 490 q 928 511 933 490 q 922 525 924 525 q 914 508 919 525 q 890 476 903 486 q 704 467 875 467 q 492 471 597 467 q 408 474 414 474 q 350 460 368 474 q 324 447 336 447 q 289 496 301 447 m 918 619 q 950 635 931 635 q 971 624 964 635 q 982 585 981 606 q 993 569 982 569 q 1043 597 1007 569 q 1100 622 1076 622 q 1125 596 1125 622 q 1132 576 1125 576 q 1150 589 1138 576 q 1171 596 1160 596 q 1197 588 1185 596 q 1208 571 1208 581 q 1178 501 1208 557 l 1147 447 l 1178 419 q 1210 363 1210 390 q 1153 321 1210 324 q 1111 296 1125 319 q 1078 275 1100 275 q 1036 286 1063 275 q 1011 292 1024 292 q 979 285 997 292 q 949 278 965 278 q 921 283 940 278 q 874 313 899 290 q 849 347 849 336 q 751 375 849 375 l 736 375 q 630 373 714 374 q 510 372 546 372 l 358 371 l 361 332 q 362 324 361 329 q 363 315 363 318 q 346 267 363 289 q 300 240 328 240 q 201 281 265 240 q 117 331 165 303 q 75 393 75 353 q 78 417 75 408 q 151 508 88 451 q 249 589 219 571 q 285 606 271 606 q 306 600 294 606 q 329 574 329 592 q 338 542 329 554 q 380 530 343 532 q 597 526 417 528 l 849 525 l 875 565 q 918 619 906 607 z "},"E":{"ha":775,"x_min":75,"x_max":700,"o":"m 343 157 q 342 165 357 165 q 322 157 326 165 q 325 149 317 149 q 343 157 332 149 m 497 543 q 480 546 490 544 q 463 549 469 547 q 453 550 456 550 q 414 534 440 550 q 374 501 388 518 q 333 483 358 483 q 271 504 306 483 q 221 525 232 525 q 182 506 203 525 q 147 458 161 488 q 133 397 133 426 q 136 344 133 389 q 157 244 143 276 q 200 201 171 213 q 235 193 219 193 q 301 219 261 193 q 358 244 332 239 q 392 263 386 250 q 407 275 396 275 q 440 246 426 275 q 479 194 457 210 q 540 175 501 178 q 552 174 544 175 q 563 174 560 174 q 603 186 589 174 q 619 210 619 200 q 636 239 619 219 q 653 294 653 260 q 644 321 653 314 q 636 353 636 326 q 590 469 636 406 q 497 543 544 532 m 444 757 q 417 768 444 771 q 372 760 383 767 q 351 735 360 754 q 347 714 347 725 q 353 688 347 699 q 369 678 360 678 l 372 678 l 375 679 q 393 685 389 685 q 422 716 400 685 q 444 757 444 747 m 99 826 q 128 843 110 843 q 163 840 132 843 q 263 810 210 836 q 313 790 301 790 q 338 799 322 790 q 457 817 374 817 q 507 810 499 817 q 519 776 519 800 q 511 756 519 760 q 486 715 504 750 q 407 622 461 661 q 385 593 385 607 q 392 586 385 586 l 400 589 q 465 599 407 593 q 478 599 469 599 q 489 600 486 600 q 546 587 522 600 q 608 536 569 574 q 647 493 636 511 q 668 438 658 475 q 700 264 700 324 q 699 244 700 250 q 672 178 693 221 q 638 121 651 135 q 531 75 614 94 q 494 69 510 69 q 440 83 476 69 q 388 97 404 97 q 360 92 382 97 q 299 82 324 82 q 133 158 213 82 q 92 218 101 190 q 76 344 83 246 q 75 383 75 358 q 163 574 75 518 q 249 596 197 596 q 304 589 282 596 q 321 585 317 585 q 325 592 325 585 l 322 614 q 278 715 317 654 q 156 779 242 779 l 149 779 l 142 779 q 89 803 89 779 q 99 826 89 813 z "},"F":{"ha":1357,"x_min":76,"x_max":1282,"o":"m 1138 361 q 1083 383 1088 383 q 1061 368 1075 383 q 1047 344 1047 353 q 979 308 1047 315 q 938 296 938 303 q 965 271 938 289 q 1022 240 993 253 q 1034 235 1026 239 q 1047 228 1042 231 q 1056 224 1053 225 q 1090 208 1082 208 q 1096 215 1096 208 q 1086 244 1096 219 q 1072 292 1072 281 q 1087 316 1072 303 q 1114 329 1101 329 l 1118 329 q 1165 319 1147 319 q 1181 326 1181 319 q 1138 361 1181 339 m 282 358 q 263 383 269 383 q 225 351 256 383 q 186 301 194 318 q 181 286 179 289 q 192 283 182 283 q 225 244 225 283 q 224 229 225 235 q 226 196 218 201 l 228 196 q 282 226 242 196 q 368 285 335 263 q 397 315 397 303 q 339 333 397 333 q 299 337 307 333 q 282 358 290 340 m 747 672 q 631 683 681 683 q 486 664 561 683 q 386 619 415 646 q 351 593 360 593 q 310 544 346 593 l 275 497 l 289 472 q 316 428 307 439 q 338 418 325 418 q 367 424 342 418 q 417 444 403 433 q 463 463 426 457 q 525 481 483 465 q 635 493 554 493 q 803 476 736 493 q 968 417 918 449 q 1004 400 994 400 q 1043 447 1015 400 l 1074 494 l 1035 533 q 974 585 993 575 q 938 607 954 593 q 858 643 918 622 q 747 672 799 664 m 515 732 q 658 743 596 743 q 819 724 750 743 q 925 686 894 701 q 1064 599 981 661 q 1147 519 1147 536 q 1133 481 1147 506 q 1125 454 1125 458 q 1175 403 1125 433 q 1251 342 1221 374 q 1282 290 1282 310 q 1276 270 1282 275 q 1246 265 1271 265 q 1226 266 1242 265 q 1200 267 1211 267 l 1178 267 q 1152 263 1157 267 q 1147 247 1147 260 q 1160 190 1147 225 q 1167 153 1167 169 q 1150 124 1167 124 q 999 186 1111 126 q 893 242 918 231 q 842 307 842 268 q 868 365 842 333 q 882 388 882 383 q 842 407 882 396 q 647 439 732 439 q 540 426 594 439 l 482 411 l 482 353 q 476 292 482 308 q 447 263 469 276 q 314 175 374 217 q 190 113 226 113 q 174 117 181 113 q 160 149 160 125 q 160 159 160 151 q 161 171 161 167 q 163 196 163 179 q 158 221 163 219 q 131 211 153 225 q 110 201 117 201 q 92 213 106 201 q 76 239 76 225 q 115 303 76 250 q 192 397 154 357 l 233 440 l 221 478 l 207 515 l 236 551 q 365 677 300 635 q 515 732 431 719 z "},"G":{"ha":1300,"x_min":75,"x_max":1225,"o":"m 732 293 q 664 313 694 313 q 632 301 642 313 q 597 218 597 263 q 608 179 597 194 q 640 164 619 164 q 660 167 653 164 q 682 189 682 175 q 661 206 682 203 q 626 242 626 210 q 628 253 626 249 q 651 274 633 274 q 694 260 663 274 q 733 225 715 250 q 750 181 750 200 q 697 125 749 157 q 651 108 671 108 q 636 110 642 108 q 580 140 608 115 q 543 192 551 165 l 535 219 l 529 190 q 526 163 526 171 q 555 78 526 115 q 626 36 583 42 q 653 33 646 33 q 764 93 710 33 q 794 129 788 118 q 800 157 800 140 q 799 186 800 174 q 732 293 792 263 m 632 371 q 671 376 660 376 q 801 310 739 376 q 849 249 838 272 q 860 189 860 225 q 810 58 860 115 q 686 -7 760 1 q 665 -8 679 -8 q 584 6 626 -8 q 522 38 542 19 q 489 101 503 57 q 475 186 475 144 q 476 207 475 200 q 530 308 483 258 q 632 371 576 357 m 250 432 l 250 447 q 244 465 250 465 q 232 456 240 465 q 221 422 221 444 q 232 401 221 403 q 244 406 240 400 q 250 432 249 413 m 371 418 q 328 457 367 439 q 296 469 303 469 q 292 467 292 469 q 303 447 292 463 q 315 408 315 431 q 294 354 315 378 q 242 331 274 331 q 179 358 207 331 q 157 401 157 381 q 158 426 157 417 q 160 449 160 436 q 157 461 160 461 q 140 426 153 461 q 132 374 132 400 q 172 283 132 306 q 229 275 189 275 q 301 286 272 275 q 353 332 332 299 q 374 399 374 365 q 371 418 374 407 m 176 538 q 232 549 213 549 q 303 533 254 549 q 400 472 365 513 q 435 383 435 431 q 389 283 435 328 q 233 225 328 225 q 154 242 189 225 q 75 367 75 283 q 81 418 75 394 q 176 538 101 510 m 1121 544 q 1056 585 1081 585 q 998 556 1021 585 q 975 485 975 528 l 975 471 q 1018 425 979 425 q 1049 447 1049 425 q 1039 468 1049 458 q 1028 496 1028 482 q 1049 524 1028 521 l 1051 524 q 1089 506 1068 524 q 1113 451 1113 486 q 1101 405 1113 421 q 1063 378 1090 389 q 1011 367 1033 367 q 951 390 975 367 q 911 496 911 433 q 913 511 911 507 q 914 524 914 517 q 910 533 914 533 q 893 517 903 533 q 883 451 883 497 q 892 390 883 411 q 945 335 899 371 q 1010 300 992 300 q 1108 330 1067 300 q 1161 410 1150 360 q 1167 454 1167 432 q 1121 544 1167 499 m 939 643 q 1004 658 963 658 q 1129 622 1076 658 q 1188 552 1154 606 q 1225 471 1222 499 l 1225 460 q 1209 377 1225 426 q 1175 308 1193 328 q 1032 257 1128 257 q 883 313 940 257 q 825 454 825 369 q 835 521 825 488 q 875 586 842 547 q 939 643 908 625 z "},"H":{"ha":972,"x_min":78,"x_max":894,"o":"m 513 415 q 507 443 513 440 q 494 444 504 444 q 453 435 463 444 q 432 317 444 426 q 419 124 419 218 q 429 24 419 42 q 467 1 442 1 q 500 15 486 1 q 524 51 511 25 q 538 89 538 78 q 536 93 538 92 q 500 104 532 97 q 472 115 478 110 q 467 136 467 119 q 469 155 467 150 q 485 160 472 160 q 492 159 486 160 q 503 158 499 158 q 513 158 507 158 q 521 157 519 157 q 535 162 532 157 q 538 182 538 167 q 534 203 538 200 q 514 207 531 207 q 463 238 463 207 q 468 253 463 250 q 492 257 474 257 q 533 290 533 257 q 532 310 533 303 q 524 337 529 332 q 500 342 519 342 q 467 358 472 342 q 464 372 464 369 q 493 392 464 392 q 509 396 506 392 q 513 415 513 400 m 492 571 q 481 638 486 638 q 471 595 476 638 q 465 525 465 553 q 467 508 465 511 q 485 506 474 501 q 494 529 494 510 q 492 571 494 535 m 603 603 q 622 603 622 589 q 599 642 622 617 q 561 668 575 668 q 550 667 550 668 q 565 642 551 661 q 603 603 588 614 m 542 881 l 563 911 l 544 911 q 499 894 522 911 q 476 875 481 885 q 471 844 471 865 q 467 799 471 808 q 446 786 461 786 q 421 797 432 786 q 324 824 399 824 q 288 819 303 824 q 243 799 253 808 q 197 765 242 797 q 164 728 164 744 q 189 714 164 714 q 238 731 219 714 q 298 753 251 740 q 368 767 344 767 q 372 766 369 767 q 376 765 375 765 q 394 749 394 761 q 368 696 394 735 q 328 615 351 671 q 304 544 304 558 q 306 542 304 542 q 334 565 313 542 q 379 622 356 589 q 437 699 421 682 q 468 717 453 717 q 486 714 472 717 q 526 704 515 708 q 538 711 538 700 q 556 739 538 724 q 607 751 569 751 q 689 749 614 751 q 817 740 803 744 q 824 742 821 739 q 826 750 826 746 q 790 779 826 760 q 711 813 754 799 q 643 822 686 822 q 589 810 589 822 q 572 801 589 801 q 533 817 544 801 q 522 840 522 831 q 542 881 522 850 m 499 956 q 571 968 536 968 q 631 957 607 968 q 654 929 654 946 q 639 904 654 915 q 622 883 622 890 q 679 876 622 876 q 881 768 824 876 q 894 722 894 742 q 836 682 894 682 q 800 685 814 682 q 704 693 753 693 q 656 685 656 693 q 668 656 656 675 q 688 556 688 624 q 682 519 688 529 q 657 501 674 501 q 601 529 640 501 q 557 558 558 558 q 554 544 554 558 q 578 388 554 471 q 592 207 589 346 l 592 189 q 573 15 592 63 q 499 -51 554 -33 q 471 -57 483 -57 q 426 -43 456 -57 q 376 -1 388 -26 q 364 96 364 25 q 365 122 364 103 q 365 153 365 142 q 390 413 367 249 q 399 478 394 440 q 407 533 404 515 q 410 556 410 551 q 369 521 410 558 q 292 476 324 476 q 265 483 279 476 q 247 508 247 493 q 269 603 247 528 q 286 679 286 667 q 283 685 286 685 q 242 668 264 679 q 181 651 217 654 q 135 642 151 651 q 115 636 121 636 q 89 647 100 636 q 78 672 78 657 q 120 762 78 707 q 203 835 163 817 l 250 858 q 338 874 272 871 q 399 879 388 875 q 433 908 411 883 q 499 956 467 944 z "},"I":{"ha":1267,"x_min":81,"x_max":1193,"o":"m 81 -371 q 82 -364 81 -365 q 88 -368 86 -361 q 86 -376 89 -374 q 81 -371 82 -376 m 735 361 q 714 374 722 374 q 668 344 703 374 q 608 240 608 294 q 601 216 608 222 q 571 206 594 210 q 558 209 563 204 q 549 228 553 214 q 493 305 542 253 q 428 357 444 357 l 426 357 q 413 336 413 353 q 443 264 413 313 q 501 174 500 176 q 560 97 529 131 q 603 63 592 63 l 604 63 q 672 156 619 74 q 735 267 725 239 q 750 326 750 306 q 735 361 750 349 m 658 404 q 718 424 686 424 q 776 399 753 424 q 800 332 800 374 q 776 242 800 303 q 724 144 751 182 q 663 44 699 111 q 607 -26 628 -25 q 578 -4 600 -26 q 536 32 543 26 q 433 174 510 51 q 351 329 357 297 q 351 335 351 331 q 350 342 350 339 q 370 391 350 372 q 421 410 390 410 q 446 407 438 410 q 519 357 468 403 l 568 314 l 597 349 q 658 404 622 378 m 975 463 q 951 494 969 472 q 925 517 932 517 q 921 507 921 517 q 935 463 921 481 q 972 394 951 440 q 1015 324 999 338 q 1025 318 1021 318 q 1033 322 1029 318 q 1046 336 1038 325 q 1090 390 1063 360 q 1139 478 1139 447 q 1135 493 1139 486 q 1104 504 1126 510 q 1061 482 1078 499 q 1042 446 1044 465 q 1035 425 1039 429 q 1014 421 1031 421 q 986 436 988 421 q 975 463 983 451 m 881 558 q 918 585 901 585 q 972 549 933 585 q 1015 519 1003 519 q 1025 524 1021 519 q 1121 561 1078 561 q 1173 542 1153 561 q 1193 489 1193 522 q 1192 482 1193 486 q 1192 476 1192 478 q 1180 415 1188 432 q 1133 349 1172 397 q 1064 261 1081 282 q 1031 238 1046 238 q 1026 238 1029 238 q 1022 239 1024 239 q 961 297 996 244 q 897 426 926 349 q 871 476 883 464 q 860 506 860 488 q 881 558 860 533 m 740 769 q 719 790 739 790 q 685 774 703 790 q 658 731 668 757 q 633 701 650 701 q 592 726 618 701 q 554 751 565 751 q 550 747 550 751 q 582 692 550 740 q 619 643 614 643 q 675 678 629 643 q 731 731 721 714 q 740 769 743 750 m 693 846 q 736 850 718 850 q 775 840 767 850 q 796 772 796 815 q 792 742 796 756 q 756 676 785 714 q 701 622 728 639 q 672 592 675 603 q 651 566 668 578 q 618 554 633 554 q 614 556 617 554 l 611 556 q 581 586 593 561 q 518 688 557 629 q 475 796 475 754 q 506 838 475 831 q 519 839 510 839 q 593 804 558 839 l 615 783 l 644 813 q 693 846 669 840 z "},"J":{"ha":942,"x_min":78,"x_max":867,"o":"m 500 311 q 449 343 481 343 q 432 342 438 343 q 409 332 415 339 q 399 306 403 325 q 394 281 394 292 q 432 243 394 247 q 440 242 435 243 q 447 242 446 242 q 492 253 475 242 q 508 285 508 265 q 500 311 508 297 m 338 313 q 446 407 358 407 q 506 399 472 407 q 556 357 543 390 q 569 286 569 321 q 563 248 569 260 q 531 210 557 236 q 483 175 496 176 q 474 174 479 174 q 444 176 469 174 q 377 192 397 181 q 343 235 357 204 q 332 275 332 257 q 338 313 332 290 m 492 585 q 467 600 479 600 q 403 567 449 600 q 298 485 319 506 q 269 440 276 465 q 241 299 256 396 q 226 157 226 201 l 226 149 q 228 110 226 121 q 247 90 231 99 q 290 79 263 81 q 375 78 317 78 l 453 78 q 668 89 644 79 q 688 99 683 94 q 692 118 692 104 q 691 129 692 121 q 690 143 690 138 q 646 375 688 190 q 571 529 622 479 q 519 567 533 567 q 492 585 507 567 m 569 664 q 504 706 540 678 q 463 733 468 733 q 406 699 444 733 q 233 536 367 665 q 151 446 151 458 q 158 442 151 442 q 215 483 165 442 q 311 572 264 525 q 367 618 360 618 q 399 643 374 618 q 449 676 417 664 q 467 679 460 679 q 592 607 524 679 q 656 547 610 588 q 740 474 701 506 q 779 447 779 443 q 689 549 779 453 q 653 592 653 585 q 622 627 653 600 q 569 664 592 654 m 444 796 q 470 799 457 797 q 486 800 483 800 q 517 782 493 800 q 590 731 528 774 q 678 656 640 699 q 831 488 801 524 q 865 422 860 451 q 867 404 867 415 q 824 350 867 363 q 799 346 808 346 q 742 375 775 346 q 718 392 725 392 q 713 381 713 392 q 719 338 713 372 q 754 140 746 219 q 756 117 754 135 q 758 93 758 100 q 709 33 758 43 q 453 22 660 24 l 378 22 q 219 29 251 22 q 175 63 186 36 q 169 119 169 75 q 183 296 169 192 q 192 367 192 353 q 185 379 192 379 q 171 375 179 379 q 125 367 147 367 q 85 382 93 367 q 78 413 78 394 q 192 581 78 475 q 322 707 267 651 q 400 781 382 767 q 444 796 418 794 z "},"K":{"ha":917,"x_min":75,"x_max":842,"o":"m 433 329 q 425 342 433 342 q 390 315 414 342 q 344 247 365 288 q 315 153 315 189 q 328 117 315 117 q 368 160 343 117 q 410 250 386 189 q 433 329 433 311 m 571 329 q 528 365 542 365 q 511 361 519 365 q 500 335 500 357 q 525 244 500 297 q 550 198 540 211 q 578 178 560 185 q 610 167 607 167 q 625 182 617 167 q 628 197 628 190 q 611 261 628 222 q 571 329 594 300 m 299 403 q 233 407 261 407 q 163 393 185 407 q 135 344 142 379 q 133 328 133 339 q 182 288 133 296 q 199 286 188 286 q 318 342 256 286 q 350 382 350 369 q 299 403 350 397 m 750 469 q 669 488 713 488 q 626 483 650 488 q 567 440 567 471 q 700 408 567 408 q 774 415 763 408 q 783 431 783 421 q 750 469 783 454 m 486 482 q 450 514 471 514 q 417 483 429 514 q 410 453 410 469 q 435 417 410 431 q 458 410 449 410 q 483 422 474 410 q 493 451 493 433 q 486 482 493 468 m 282 529 q 219 543 256 543 q 160 525 174 543 q 149 508 149 513 q 160 496 149 504 q 222 476 175 485 q 303 467 268 467 q 332 474 332 467 q 315 502 332 483 q 282 529 299 521 m 647 696 q 618 718 629 718 q 599 704 610 718 q 567 653 585 689 q 550 606 550 617 q 536 571 550 593 q 528 549 528 558 q 544 533 528 533 q 613 594 558 533 q 667 668 667 654 q 647 696 667 676 m 389 715 q 313 743 357 743 q 300 742 303 743 q 285 724 285 736 q 288 700 285 722 q 319 615 293 667 q 363 553 344 564 q 379 546 374 546 q 401 558 385 546 q 438 576 422 576 q 447 582 446 576 q 444 607 449 588 q 422 668 440 632 q 389 715 403 704 m 275 796 q 308 800 296 800 q 372 783 326 800 q 440 742 410 769 q 483 683 469 715 q 500 660 493 660 q 533 704 507 660 q 621 774 574 774 q 683 742 653 774 q 719 661 719 701 q 696 610 719 629 q 672 579 686 603 q 658 549 658 556 l 660 547 l 711 536 q 831 475 810 515 q 842 432 842 454 q 826 389 842 408 q 792 367 813 372 q 669 354 771 363 q 638 344 638 351 q 654 297 638 333 q 682 193 682 242 q 618 117 682 117 q 585 122 601 117 q 520 161 556 132 q 479 211 485 190 q 464 232 474 232 q 458 219 458 229 q 415 132 458 199 q 354 61 371 65 q 322 57 338 57 q 260 135 260 57 q 268 196 260 163 l 279 239 l 219 238 l 210 238 q 89 289 119 238 q 75 325 75 311 q 81 353 75 336 q 107 415 92 389 q 118 443 118 433 q 107 463 118 451 q 89 513 89 481 q 124 577 89 553 q 218 601 160 601 l 226 601 q 249 611 249 601 q 246 628 249 614 q 235 703 239 661 q 233 725 233 711 q 275 796 233 788 z "},"L":{"ha":1003,"x_min":76,"x_max":928,"o":"m 572 79 q 557 171 571 169 l 550 171 q 486 114 535 171 q 450 53 450 71 q 499 13 450 39 q 554 -26 546 -14 q 564 -33 560 -33 q 574 29 574 -33 q 573 53 574 36 q 572 79 572 69 m 440 899 q 364 915 403 915 q 282 895 317 915 q 247 849 247 875 q 267 811 247 829 q 297 796 282 796 q 306 797 303 796 q 342 828 319 801 q 364 867 364 856 q 376 880 364 874 q 406 886 389 886 q 449 851 426 886 q 478 775 472 817 q 479 760 479 769 q 446 638 479 711 q 364 508 413 565 q 256 328 256 381 q 260 297 256 304 q 288 281 265 290 q 515 236 365 247 q 551 235 531 235 q 563 236 563 235 q 490 269 563 242 q 433 310 435 290 q 446 344 431 332 q 463 354 458 354 q 489 336 471 354 q 618 292 540 292 q 649 304 649 292 q 622 325 649 315 q 565 353 579 340 q 550 388 550 365 q 575 414 550 414 q 631 400 592 414 q 703 355 672 383 q 733 304 733 326 q 711 257 733 285 q 693 228 689 232 q 699 226 696 226 q 764 237 715 226 q 835 256 813 247 q 864 297 864 267 q 857 328 864 310 q 832 371 849 350 q 806 392 815 392 q 776 407 794 392 q 633 436 735 436 q 482 413 549 436 q 462 406 475 410 q 440 399 449 401 q 428 394 432 396 q 393 374 408 389 q 344 353 375 358 l 314 347 l 314 382 q 326 435 314 413 q 356 458 339 458 q 419 512 374 458 q 485 610 464 565 q 518 738 518 683 q 506 804 518 772 q 474 872 485 857 q 440 899 464 886 m 278 964 q 343 978 301 978 q 440 960 392 978 q 514 914 489 942 q 578 747 578 839 q 519 557 578 657 q 482 483 482 489 q 485 481 482 482 q 495 482 489 481 q 508 485 501 483 q 601 492 539 492 q 721 483 672 492 q 925 332 890 454 q 928 314 928 321 q 916 264 928 290 q 886 222 904 238 q 717 174 846 189 q 633 161 635 163 q 629 -33 629 153 l 629 -129 q 632 -217 629 -196 q 646 -254 635 -237 q 661 -294 661 -278 q 633 -319 661 -319 q 599 -307 611 -319 q 585 -299 589 -299 q 574 -307 581 -299 q 550 -318 564 -318 q 518 -299 529 -318 q 489 -278 506 -278 q 463 -250 463 -278 q 469 -229 463 -240 q 518 -211 482 -211 l 554 -211 l 560 -167 q 565 -90 565 -124 q 558 -57 565 -57 q 556 -58 557 -57 q 528 -68 546 -68 q 463 -43 497 -68 q 396 3 433 -22 q 364 39 364 25 q 400 99 364 54 q 454 175 454 168 q 447 183 454 179 q 401 190 436 190 q 321 203 368 190 q 274 211 279 211 l 269 210 q 236 224 263 207 q 196 288 206 243 q 190 331 190 311 q 197 368 190 350 q 256 474 207 397 q 322 561 306 550 q 382 649 349 581 q 415 753 415 717 q 400 782 415 782 q 378 767 389 782 q 253 724 349 732 q 185 707 203 718 q 93 660 115 660 q 76 697 76 660 q 82 724 76 714 q 126 786 97 751 q 167 850 163 832 q 181 868 172 868 q 189 876 189 868 q 223 919 189 885 q 278 964 257 953 z "},"M":{"ha":804,"x_min":79,"x_max":726,"o":"m 396 43 q 397 41 396 43 q 404 39 399 39 q 413 43 410 39 q 415 52 417 47 q 404 57 413 57 q 395 52 397 57 q 396 43 393 47 m 501 61 q 493 63 501 69 q 488 56 490 60 q 492 51 483 47 q 501 61 501 56 m 443 150 q 436 163 443 160 q 406 165 429 165 q 364 151 364 165 q 368 135 364 144 q 400 114 376 114 q 430 124 417 114 q 443 150 443 135 m 294 169 q 263 175 278 175 q 233 165 233 175 q 246 135 233 147 q 279 124 258 124 q 303 127 299 124 q 308 144 308 131 q 294 169 308 164 m 560 196 q 531 192 550 196 q 510 182 515 189 q 503 158 504 175 l 503 150 q 515 132 503 132 q 557 144 528 132 q 583 168 583 156 q 560 196 583 196 m 451 254 q 449 267 451 261 q 445 275 447 272 q 437 280 443 278 q 427 283 431 282 q 414 285 424 283 q 399 288 404 286 q 382 289 393 289 q 360 263 360 289 q 361 243 360 251 q 368 224 363 229 q 390 218 374 219 l 400 218 q 451 254 451 218 m 600 281 q 569 306 597 306 q 529 299 550 306 q 501 271 501 292 q 513 246 501 246 q 533 254 521 246 q 567 264 553 264 q 572 263 569 264 q 578 263 575 263 q 598 261 594 258 q 600 281 601 264 m 278 299 q 239 307 249 307 q 225 285 225 307 q 231 263 225 271 q 254 247 236 256 q 294 233 282 233 q 308 263 308 233 q 303 288 308 282 q 278 299 299 293 m 435 357 q 424 386 435 369 q 411 397 415 397 q 394 382 407 396 q 378 351 378 364 q 399 338 378 338 q 423 343 411 338 q 435 357 435 349 m 544 411 q 514 425 529 425 q 485 388 485 425 q 504 353 485 353 q 531 358 508 353 q 560 385 560 369 q 544 411 560 396 m 326 389 q 332 417 332 406 q 315 439 332 439 q 296 432 310 439 q 258 382 258 414 q 288 367 258 367 q 326 389 318 367 m 460 821 q 453 835 460 835 q 428 804 440 835 q 411 735 417 775 q 378 675 404 675 q 338 697 363 675 q 311 715 315 715 q 310 714 310 715 q 331 678 310 706 q 358 651 351 651 q 368 634 364 651 q 372 601 372 617 q 371 589 372 592 q 346 574 364 574 q 307 588 326 574 q 260 607 281 604 l 256 607 q 250 604 250 607 q 285 567 250 597 q 343 521 332 525 q 367 492 357 515 q 399 467 375 467 q 446 501 424 467 q 463 536 463 528 q 456 547 463 540 q 443 576 443 556 q 453 601 443 593 q 521 665 521 660 q 517 668 521 668 q 497 660 501 668 q 472 651 492 651 q 442 693 442 651 q 449 747 442 710 q 460 821 460 811 m 456 913 q 510 944 497 944 q 531 933 522 944 q 540 908 540 922 q 539 900 540 903 q 508 739 508 786 q 510 732 508 733 q 526 729 513 729 q 558 733 542 729 q 607 738 582 738 q 690 724 654 738 q 726 690 726 711 q 694 662 726 679 q 640 643 663 644 q 593 626 624 643 q 563 600 563 610 q 608 579 563 590 q 675 535 675 565 q 665 515 675 519 q 621 508 656 511 q 563 497 572 503 q 582 468 557 489 q 635 393 608 447 q 661 281 661 340 l 661 272 q 626 93 661 168 q 540 15 604 49 q 407 -18 475 -18 q 200 99 274 -15 q 176 147 182 128 q 168 215 171 167 q 167 231 168 221 q 167 247 167 242 q 225 450 167 372 q 258 510 258 494 q 233 536 258 524 q 182 549 208 549 q 172 548 179 549 q 161 547 165 547 q 136 546 151 546 q 99 558 115 546 l 79 574 l 101 603 q 183 651 125 633 q 240 685 240 671 q 156 747 240 704 q 119 781 119 765 q 125 794 119 783 q 186 807 133 807 q 300 790 254 807 q 340 779 329 779 q 354 789 349 779 q 456 913 404 875 z "},"N":{"ha":956,"x_min":76,"x_max":882,"o":"m 557 981 q 571 986 563 986 q 588 976 581 986 q 596 956 596 967 q 588 933 596 944 q 583 921 583 928 q 599 874 583 906 q 621 794 621 821 q 615 765 621 772 q 578 742 608 757 q 528 726 547 726 l 524 726 q 513 743 513 731 q 539 789 513 767 l 564 810 l 543 851 q 521 913 521 896 q 532 949 521 928 q 557 981 543 971 m 368 153 q 308 176 342 176 q 236 157 278 176 q 193 126 193 136 q 189 108 193 111 q 179 94 179 103 q 201 71 179 79 q 324 43 243 54 q 465 32 404 32 q 515 36 500 32 q 626 53 528 42 q 794 104 732 64 q 813 139 813 118 q 803 161 813 153 q 742 175 788 175 q 696 168 711 175 q 449 135 631 140 l 425 135 q 368 153 386 135 m 694 551 q 585 558 686 556 l 543 558 q 429 543 475 558 q 375 515 375 526 q 408 505 375 511 q 461 499 442 499 q 471 500 469 499 q 542 507 475 501 q 647 518 585 510 q 700 543 700 525 q 694 551 700 547 m 549 639 q 539 644 543 644 q 382 622 514 639 q 292 599 317 613 q 267 560 267 586 q 268 543 267 549 q 282 521 272 521 q 288 536 288 521 q 387 594 289 568 q 607 619 485 619 q 626 619 614 619 q 646 618 639 618 q 730 611 714 615 q 760 590 746 607 q 779 543 779 567 q 754 497 779 517 q 687 471 731 479 q 538 456 643 463 q 443 451 479 451 q 322 479 372 451 l 289 499 l 269 476 q 238 456 254 456 q 225 457 231 456 q 203 460 208 460 q 158 428 175 460 q 146 386 146 406 q 160 360 146 367 q 190 354 179 354 q 257 374 222 354 q 299 390 286 390 q 310 388 301 390 q 329 369 324 382 q 342 317 335 357 q 365 250 347 285 q 402 210 381 221 q 468 200 424 200 q 546 204 497 200 q 661 224 643 214 q 756 360 690 239 q 821 524 821 482 q 792 578 821 550 q 763 614 763 607 q 747 621 763 621 q 726 628 731 621 q 656 642 717 642 q 610 639 643 642 q 565 636 574 636 q 549 639 551 636 m 706 978 q 743 1013 725 1013 q 772 985 772 1013 q 765 958 772 971 q 758 918 758 946 q 772 867 758 875 q 792 797 792 854 q 789 776 792 788 q 760 738 781 754 q 724 721 740 721 q 704 708 704 721 q 715 696 704 696 q 772 676 733 696 q 836 632 811 656 q 869 595 861 608 q 881 549 876 582 q 882 528 882 542 q 835 372 882 447 q 792 296 814 339 q 771 246 771 253 q 783 238 771 238 q 832 219 800 238 q 871 189 864 201 q 879 143 879 172 q 863 76 879 97 q 783 26 836 43 q 619 0 729 10 q 418 -14 510 -10 l 401 -14 q 190 10 346 -14 q 140 32 160 14 q 121 74 121 50 q 149 167 121 132 q 240 222 176 201 q 288 263 288 239 q 279 288 288 272 q 258 301 271 301 q 235 299 257 301 q 190 294 208 294 q 124 314 158 294 q 76 390 76 340 q 81 418 76 403 q 119 480 89 447 q 168 513 150 513 q 203 558 203 513 l 203 576 q 215 619 203 604 q 258 650 226 635 q 561 694 336 685 q 678 711 672 699 q 672 721 681 721 q 663 738 663 721 q 692 765 663 756 q 726 801 726 782 q 710 851 726 818 q 689 919 689 896 q 706 978 689 944 m 346 979 q 390 1014 372 1014 q 403 993 403 1014 q 386 933 403 972 l 369 894 l 394 858 q 431 764 431 807 q 394 711 431 719 q 375 708 381 708 q 342 731 342 708 q 354 754 342 742 q 371 779 371 771 q 336 836 371 789 q 307 893 307 876 q 311 915 307 900 q 346 979 322 949 z "},"O":{"ha":1121,"x_min":79,"x_max":1042,"o":"m 975 886 q 1032 910 1025 910 l 1033 910 q 1042 878 1042 908 q 1034 851 1042 858 q 988 829 1026 843 q 924 801 957 818 q 914 799 918 799 q 892 807 903 799 q 881 825 881 815 q 904 851 881 839 q 933 865 907 853 q 975 886 958 878 m 621 92 q 589 103 621 103 l 574 103 q 479 90 513 101 q 472 85 472 88 q 533 67 472 74 q 557 65 542 65 q 621 92 621 65 m 641 163 q 664 167 641 163 q 688 182 688 171 q 568 194 688 193 l 517 194 q 439 185 447 194 q 432 171 432 175 q 526 154 432 154 q 641 163 594 154 m 719 299 q 679 301 711 301 q 507 287 608 301 q 406 260 406 272 q 524 250 406 250 q 703 261 665 250 q 738 285 738 272 q 719 299 738 294 m 571 413 q 564 465 571 461 l 563 465 q 553 434 558 465 q 549 378 549 403 q 550 363 549 365 q 558 356 554 356 q 571 413 571 356 m 496 599 q 485 618 496 615 q 476 614 481 619 q 483 596 471 606 q 496 599 496 585 m 643 869 q 576 886 589 886 q 374 806 451 871 q 289 644 296 740 q 288 625 289 639 q 288 606 288 611 q 290 560 288 579 q 389 449 301 499 q 439 400 428 426 q 459 348 453 358 q 474 338 465 338 q 491 351 488 338 q 500 431 494 364 l 506 511 l 483 518 q 442 557 464 524 q 419 617 419 590 q 435 656 419 642 q 478 671 451 671 q 515 665 504 671 q 536 640 525 660 q 556 621 544 621 q 563 633 563 621 q 581 664 563 649 q 617 679 599 679 q 658 665 636 679 q 679 628 679 653 q 650 564 679 600 l 619 526 l 622 443 q 628 372 625 386 q 640 356 631 357 q 649 355 646 356 q 652 358 651 354 q 652 367 653 363 q 650 381 651 371 q 649 394 649 386 q 696 461 649 413 q 763 550 743 508 q 786 650 782 592 q 787 665 786 656 q 788 678 788 674 q 769 754 788 710 q 720 829 747 804 q 643 869 693 854 m 504 932 q 549 936 528 936 q 638 924 588 936 q 786 839 738 901 q 828 762 818 800 q 840 654 839 724 q 826 546 840 585 q 768 451 813 507 q 728 374 728 403 q 738 363 728 363 q 775 336 743 363 q 806 282 806 310 q 779 236 806 257 q 754 194 754 219 q 740 145 754 168 q 708 118 726 122 q 688 89 688 113 q 658 31 688 49 q 558 13 628 13 q 542 13 553 13 q 524 14 531 14 q 431 26 450 15 q 413 76 413 38 q 397 113 413 106 q 357 165 357 133 q 358 181 357 175 q 360 208 363 203 q 347 213 358 213 q 319 229 332 213 q 306 264 306 246 q 307 274 306 271 q 350 311 311 294 q 381 330 374 322 q 388 353 388 338 q 378 380 388 368 q 335 415 368 392 q 260 489 283 451 q 231 585 238 526 q 228 632 228 601 q 353 865 228 775 q 428 906 382 886 q 504 932 475 926 m 79 947 q 96 963 79 963 q 183 922 124 963 q 242 863 242 883 q 225 839 242 839 q 143 885 203 839 q 79 947 79 931 m 850 1061 q 882 1079 864 1079 q 899 1068 894 1079 q 900 1064 899 1067 q 847 964 900 1035 q 813 939 828 939 l 810 939 q 790 960 790 942 q 850 1061 790 993 m 335 1124 q 347 1129 340 1129 q 384 1074 354 1129 q 418 997 414 1019 q 421 982 421 983 q 400 963 421 971 q 381 958 390 958 q 369 960 371 957 q 347 1019 367 964 q 329 1103 329 1076 q 335 1124 329 1119 m 619 1140 q 639 1164 628 1164 q 663 1090 663 1164 q 629 997 663 997 l 626 997 q 615 1001 618 999 q 611 1009 613 1003 q 610 1029 610 1015 l 610 1058 q 619 1140 613 1125 z "},"P":{"ha":922,"x_min":75,"x_max":843,"o":"m 414 449 q 428 454 418 454 q 453 440 446 454 q 457 417 457 431 q 449 368 457 400 q 428 339 442 339 l 422 339 q 409 345 413 342 q 406 364 406 349 q 406 376 406 367 q 407 392 407 386 q 414 449 410 442 m 185 553 q 210 558 190 558 q 292 542 244 558 q 324 513 322 531 q 324 508 324 511 q 325 504 325 506 q 313 496 325 496 q 282 499 310 496 q 176 536 176 511 q 185 553 176 544 m 682 347 q 657 363 658 363 q 663 345 656 363 q 686 293 669 328 q 740 176 713 242 q 778 129 761 129 q 790 134 788 129 q 788 153 792 139 q 739 261 779 186 q 682 347 699 336 m 740 553 l 721 592 l 671 593 l 657 593 q 557 556 600 593 q 546 542 546 547 q 608 529 546 529 q 675 513 675 529 q 668 501 675 508 q 603 492 661 494 q 544 479 544 492 q 574 463 544 469 q 640 456 603 456 q 707 464 679 456 q 746 493 735 475 q 754 514 754 506 q 740 553 754 525 m 526 731 q 481 753 504 753 q 432 738 463 753 q 407 717 414 726 q 396 689 400 708 q 394 672 394 683 q 401 638 394 653 q 417 624 407 624 l 419 624 q 436 660 428 626 q 474 713 450 713 q 489 703 483 713 q 490 694 490 701 q 475 633 490 672 q 449 589 460 593 q 422 567 435 586 q 385 549 411 549 q 314 569 356 549 q 265 585 283 585 l 261 585 q 235 586 249 579 q 215 590 226 590 q 169 578 193 590 q 136 550 144 567 q 129 525 129 536 q 158 483 129 499 q 228 467 186 467 q 294 478 263 467 q 331 488 328 488 q 347 476 340 488 q 354 451 354 468 q 351 426 354 436 q 346 349 346 388 q 426 254 346 268 q 451 251 446 251 q 514 310 493 251 q 525 349 525 339 q 514 388 525 357 q 500 447 500 429 q 508 467 500 463 q 513 508 513 471 q 509 551 513 525 q 506 579 506 576 q 526 633 506 592 q 550 694 550 681 q 526 731 550 707 m 450 806 q 461 811 450 811 q 544 785 496 811 q 589 740 571 769 q 607 683 607 710 l 607 676 l 604 650 l 656 653 l 671 653 q 810 522 803 653 l 810 506 q 789 456 810 478 q 736 417 761 428 q 708 397 708 404 q 733 368 708 393 q 794 272 756 347 q 840 154 832 196 q 843 128 843 135 q 797 67 843 86 q 772 63 785 63 q 697 122 718 63 q 633 265 675 179 q 592 326 603 326 q 581 307 585 326 q 536 242 575 283 l 497 200 l 436 201 q 379 207 394 203 q 342 229 364 211 q 298 277 307 256 q 289 351 289 299 l 289 413 l 246 413 q 120 443 165 413 q 75 529 75 474 q 236 646 75 646 q 249 645 240 646 q 263 644 258 644 l 333 640 l 333 665 q 351 727 335 692 q 385 774 367 763 q 428 792 403 786 q 450 806 450 797 z "},"Q":{"ha":1074,"x_min":78,"x_max":994,"o":"m 707 988 q 821 993 818 990 q 829 996 824 996 q 855 983 842 996 q 868 956 868 969 q 854 933 868 940 q 615 921 839 926 q 186 892 272 914 q 156 874 156 882 q 289 736 156 856 q 294 731 293 732 q 414 615 376 658 q 475 525 451 572 q 500 458 500 475 q 475 378 500 442 q 426 290 456 326 q 306 164 396 253 q 204 56 204 65 q 219 42 204 47 q 278 39 226 39 q 604 57 463 39 q 749 69 699 69 q 865 86 801 69 q 926 97 910 97 q 957 88 939 97 q 994 10 994 65 q 993 -14 994 -6 q 979 -53 989 -47 q 792 -69 958 -69 q 754 -69 775 -69 l 567 -69 q 161 -58 172 -68 q 139 -25 149 -49 q 129 15 129 -1 q 131 25 129 22 q 133 63 133 36 q 156 96 133 72 q 282 219 178 119 q 358 308 329 264 q 386 382 386 353 q 371 440 386 406 q 333 497 356 475 q 121 738 161 681 q 78 863 81 796 l 78 869 q 84 894 78 885 q 113 919 90 904 q 163 946 140 940 q 517 979 203 954 q 707 988 611 985 z "},"R":{"ha":1086,"x_min":79,"x_max":1008,"o":"m 118 1006 q 139 1018 131 1018 q 158 1013 147 1018 q 349 997 185 1003 q 636 971 524 992 q 811 944 775 947 q 943 881 926 933 q 953 835 953 849 q 931 778 953 808 q 851 686 910 747 q 715 532 811 643 q 651 442 651 456 q 654 436 651 439 q 728 397 665 425 q 856 332 790 369 q 942 274 921 294 q 989 200 963 254 q 1008 144 1008 160 q 1003 122 1008 133 q 799 25 976 61 q 549 -6 732 13 q 408 -26 464 -14 q 319 -44 351 -39 q 133 -87 175 -65 q 124 -90 128 -90 q 93 -65 107 -90 q 79 -8 79 -39 q 90 35 79 19 q 111 53 101 50 q 160 56 121 56 q 303 74 213 56 q 458 100 349 82 q 617 128 568 118 q 683 142 635 132 q 732 153 731 153 q 863 185 828 174 q 897 213 897 197 q 865 253 897 228 q 667 365 815 296 q 576 427 615 389 q 536 489 536 465 q 586 572 538 513 q 674 657 635 631 q 775 743 715 686 q 849 826 835 800 q 860 857 860 846 q 842 875 860 869 q 772 888 825 881 q 379 913 581 913 l 299 913 l 107 911 l 104 950 l 104 965 q 118 1006 104 992 z "},"S":{"ha":614,"x_min":78,"x_max":536,"o":"m 375 204 q 292 285 317 285 q 246 250 274 285 q 201 149 217 215 q 192 114 197 133 q 184 82 188 94 q 179 65 181 69 q 178 49 175 53 q 197 46 181 46 q 221 55 214 46 q 240 103 228 64 q 258 172 258 160 q 278 210 258 188 q 303 228 294 228 q 314 224 308 228 q 337 199 326 217 q 385 97 347 181 q 415 35 406 49 q 435 22 424 22 l 440 22 q 464 46 464 25 q 375 204 464 85 m 317 372 q 306 381 317 381 q 285 374 296 381 q 275 363 275 368 q 278 357 275 360 q 283 356 279 356 q 305 361 293 356 q 317 372 317 367 m 224 874 q 206 886 217 886 q 171 881 193 886 l 146 875 l 147 800 q 155 706 149 751 q 172 602 161 661 q 188 515 183 543 q 231 417 206 417 q 240 419 238 417 q 251 543 251 428 q 250 638 251 607 q 244 710 249 668 q 238 788 240 753 q 224 874 233 856 m 461 882 q 447 894 456 896 q 416 885 432 893 q 399 869 400 876 q 367 667 396 839 q 335 461 335 482 q 342 442 335 451 q 358 433 353 428 q 384 496 367 439 q 407 596 401 553 q 436 729 413 639 q 464 864 464 836 q 461 882 464 874 m 428 956 q 501 961 478 961 q 532 951 524 961 q 536 929 536 944 q 500 738 536 878 q 459 560 485 678 q 422 397 433 442 q 403 375 419 388 q 381 333 386 363 q 378 315 378 319 q 403 271 378 300 q 433 231 419 251 q 460 183 446 210 q 486 140 475 157 q 519 71 504 111 q 533 7 533 31 q 425 -31 533 -26 q 407 -31 417 -31 q 394 -32 397 -32 q 373 -28 378 -32 q 364 -8 368 -24 q 343 47 360 7 q 322 99 326 88 q 313 113 318 113 q 289 64 304 113 q 262 -1 274 17 q 232 -18 250 -18 q 218 -17 224 -18 q 185 -13 207 -15 q 146 -9 163 -11 q 119 -1 129 -7 q 108 33 108 6 q 122 90 108 63 q 145 160 135 114 q 157 240 156 206 q 170 285 158 265 q 197 304 182 304 q 208 310 207 304 q 203 336 208 315 q 183 354 197 354 q 129 513 147 354 q 109 645 125 543 q 89 814 93 747 q 79 901 83 885 q 78 910 78 904 q 93 938 78 925 q 128 951 108 951 l 136 951 q 203 946 164 946 q 265 928 253 946 q 289 817 278 910 q 308 701 301 708 l 310 700 q 340 853 321 700 q 362 933 347 917 q 428 956 376 950 z "},"T":{"ha":771,"x_min":76,"x_max":696,"o":"m 626 701 q 571 732 613 732 q 549 731 557 732 q 486 681 531 728 q 399 510 418 610 q 378 478 393 485 q 365 474 372 474 q 313 563 339 474 q 225 710 274 690 q 182 721 199 721 q 153 707 165 721 q 136 650 136 686 q 192 478 136 575 q 308 303 249 375 q 393 231 367 231 q 396 231 394 231 q 399 232 397 232 q 444 285 413 238 q 617 551 593 501 q 638 646 638 596 q 626 701 638 682 m 515 779 q 558 785 532 785 q 640 765 614 785 q 681 714 663 750 q 696 646 696 685 q 654 499 696 583 q 576 367 628 443 q 493 257 525 290 q 444 185 468 232 l 419 136 l 379 140 q 331 151 350 142 q 313 172 313 161 q 265 244 313 182 q 151 425 206 324 q 82 579 96 526 q 76 636 76 603 q 115 753 76 721 q 176 772 139 772 q 279 738 228 772 q 344 656 331 704 q 363 618 353 624 l 364 618 q 392 656 372 618 q 451 733 414 694 q 515 779 489 771 z "},"U":{"ha":942,"x_min":75,"x_max":865,"o":"m 379 413 q 331 428 346 428 q 293 403 311 428 q 278 372 272 378 q 286 371 279 371 q 324 376 303 371 q 388 392 374 389 l 413 397 l 379 413 m 517 488 q 428 504 463 504 q 383 488 392 504 q 397 461 374 469 q 514 435 464 435 q 583 453 556 435 q 590 460 590 457 q 517 488 590 465 m 332 528 q 333 531 332 529 l 333 533 q 329 539 333 539 q 303 515 319 539 l 289 492 l 308 506 q 332 528 329 519 m 624 549 q 511 568 528 568 q 493 560 500 568 q 485 546 485 551 q 538 526 485 539 q 622 503 554 522 q 651 496 643 496 q 675 508 663 496 q 692 529 692 522 q 624 549 692 533 m 728 632 q 675 644 693 644 q 633 635 658 644 q 603 615 603 624 q 674 589 603 600 q 738 582 722 582 q 767 603 767 582 q 728 632 767 618 m 453 628 q 433 646 449 646 q 422 636 426 646 q 411 590 411 600 q 417 581 411 581 q 440 594 422 581 q 453 628 457 607 m 599 732 q 599 733 599 733 q 600 735 600 733 q 594 738 600 738 q 557 725 581 738 q 528 691 544 718 q 513 651 513 664 q 517 646 513 646 q 557 665 539 646 q 599 732 575 685 m 729 747 q 693 753 707 753 q 664 733 675 753 q 650 701 650 713 q 656 696 650 696 q 707 718 660 696 q 746 740 746 736 q 729 747 746 743 m 638 806 q 667 813 656 813 q 735 801 675 813 q 865 725 865 775 q 865 720 865 724 q 864 715 864 717 q 816 572 847 624 q 708 465 785 521 q 624 411 654 426 q 521 372 594 396 q 231 301 301 301 l 222 301 l 217 301 q 178 276 197 301 q 150 211 160 250 q 131 163 140 172 q 118 160 128 160 q 90 169 104 160 q 75 188 75 178 q 103 256 75 199 q 149 342 131 314 q 167 382 167 368 q 192 448 167 400 q 243 528 217 496 q 306 601 254 542 q 429 707 347 651 q 575 783 511 763 q 638 806 622 799 z "},"V":{"ha":1039,"x_min":76,"x_max":964,"o":"m 624 175 q 610 217 622 217 q 599 188 600 217 q 598 174 599 182 q 597 163 597 165 q 611 129 597 129 q 625 150 625 129 q 624 175 625 165 m 232 294 q 203 347 232 347 q 182 344 190 347 q 135 306 135 333 q 139 282 135 297 q 149 256 143 263 q 169 247 156 249 q 213 249 196 244 q 229 260 226 253 q 232 294 232 267 m 882 310 q 851 476 863 476 q 838 436 846 476 q 814 413 832 413 q 751 399 801 413 l 707 385 l 682 408 q 657 447 657 433 q 649 466 657 458 q 635 468 640 474 q 640 428 631 464 q 661 325 651 390 q 703 144 690 153 q 792 138 713 138 q 890 144 879 138 q 896 168 896 149 q 882 310 896 194 m 720 467 q 722 465 720 467 q 736 463 724 463 q 752 467 749 463 q 750 475 756 471 q 736 479 744 479 q 722 475 728 479 q 720 467 717 471 m 476 699 q 554 710 504 710 q 663 686 626 710 q 742 590 724 650 q 759 556 749 564 q 799 547 769 547 q 840 549 824 547 q 874 550 854 550 q 899 540 899 550 q 907 514 899 531 q 924 407 913 504 q 950 246 935 310 q 964 165 964 192 q 961 138 964 157 q 924 85 953 96 q 789 75 894 75 q 669 69 675 75 q 624 63 665 63 q 562 81 585 63 q 539 131 539 99 q 553 332 539 181 q 574 494 568 483 q 657 538 596 538 q 693 544 690 538 q 694 547 694 546 q 681 588 694 560 q 628 642 663 622 q 553 661 593 661 q 501 653 526 661 q 467 617 476 644 q 449 500 457 589 q 432 369 438 385 q 396 317 425 340 q 332 290 367 294 q 300 275 300 285 q 303 258 300 272 q 304 244 304 253 q 204 196 304 203 q 125 185 129 188 q 118 182 119 182 q 94 208 106 182 q 79 274 82 233 q 76 318 76 310 q 90 361 76 349 q 149 388 104 374 q 226 403 201 403 q 271 381 261 403 q 325 346 289 346 q 355 349 347 346 q 372 377 363 353 q 386 450 381 401 q 403 592 392 499 q 403 594 403 593 q 476 699 411 675 z "},"W":{"ha":1478,"x_min":76,"x_max":1400,"o":"m 192 33 q 186 45 192 43 q 174 40 181 47 q 172 28 168 35 q 185 21 176 21 q 192 33 192 21 m 154 135 q 185 144 175 144 q 235 129 197 144 q 318 50 318 97 q 282 -15 318 19 q 233 -46 250 -46 q 211 -43 228 -46 q 153 -22 186 -40 q 107 15 119 -3 q 101 43 101 22 q 115 101 101 78 q 154 135 131 125 m 1254 172 q 1303 186 1276 186 q 1354 169 1332 186 q 1385 119 1376 151 q 1390 82 1390 92 q 1367 19 1390 43 q 1306 -4 1344 -4 q 1253 6 1281 -4 q 1216 37 1231 13 q 1201 89 1201 61 q 1202 96 1201 92 q 1203 101 1203 100 q 1217 141 1207 126 q 1254 172 1228 156 m 700 150 q 696 160 700 157 q 687 161 692 164 q 679 150 682 158 q 672 126 675 139 q 641 101 668 115 q 586 82 614 88 q 563 74 563 78 q 574 60 563 71 q 611 44 589 44 q 651 60 633 44 q 683 105 667 74 q 700 150 700 136 m 575 126 q 576 167 581 136 l 576 168 q 570 194 572 193 q 563 185 568 194 q 561 182 563 183 q 550 147 550 163 q 559 126 550 133 q 575 126 568 119 m 525 240 q 568 263 546 263 q 604 260 574 263 q 691 240 651 256 q 742 206 731 224 q 747 178 747 196 q 722 83 747 136 q 671 19 697 29 q 603 13 653 13 q 559 17 571 13 q 528 43 547 22 q 483 147 483 89 q 492 195 483 176 q 525 240 500 214 m 950 393 q 943 413 950 413 q 925 364 925 413 q 936 319 925 335 q 971 301 951 301 q 1004 314 988 301 q 1025 343 1025 332 q 1024 351 1025 349 q 1021 353 1024 353 q 1013 352 1018 354 q 1000 344 1008 350 q 983 338 989 338 q 967 353 976 339 q 950 393 950 375 m 932 483 q 988 494 953 494 q 1097 458 1061 494 q 1114 432 1111 444 q 1117 382 1117 419 q 1096 293 1117 324 q 994 238 1057 238 q 908 272 940 239 q 875 361 875 306 q 892 435 875 397 q 932 483 910 472 m 128 507 q 167 529 149 529 q 233 486 192 529 q 275 415 275 440 q 258 364 275 394 q 230 328 244 336 q 178 321 215 321 q 142 326 154 321 q 108 353 129 332 q 76 415 76 385 q 128 507 76 451 m 471 708 q 515 717 488 717 q 578 703 554 717 q 624 610 624 678 q 592 521 624 554 q 566 500 578 504 q 528 496 554 496 q 467 512 489 496 q 429 564 444 528 q 419 613 419 585 q 471 708 419 682 m 1271 797 q 1256 805 1267 804 q 1240 799 1246 806 q 1233 783 1233 792 q 1250 763 1233 763 q 1267 770 1260 763 q 1274 788 1274 778 q 1271 797 1274 792 m 1251 921 q 1290 928 1283 928 q 1326 918 1303 928 q 1399 799 1394 890 q 1399 785 1399 793 q 1400 772 1400 776 q 1381 710 1400 742 q 1272 633 1333 633 q 1217 647 1244 633 q 1143 771 1143 686 q 1161 846 1143 810 q 1251 921 1192 907 m 850 781 q 851 782 851 781 q 832 805 851 788 q 804 822 813 822 q 800 818 800 822 q 817 794 800 808 q 846 779 835 779 q 850 781 847 779 m 894 851 q 872 861 894 861 q 850 844 850 861 q 864 839 850 839 q 894 851 894 839 m 822 954 q 861 958 835 958 q 946 949 919 958 q 972 916 960 943 q 983 864 983 889 q 964 786 983 821 q 911 735 944 751 q 856 721 885 721 q 758 774 792 721 q 743 824 743 800 q 756 881 743 844 q 822 954 775 939 m 246 1057 q 278 1061 263 1061 q 363 994 328 1061 q 374 964 374 975 q 367 931 374 956 q 282 847 343 847 q 219 871 251 847 q 190 898 199 886 q 179 933 182 910 q 178 954 178 940 q 197 1021 178 992 q 246 1057 215 1050 z "},"X":{"ha":1569,"x_min":79,"x_max":1492,"o":"m 204 265 q 196 283 204 279 q 188 276 188 289 q 196 258 188 264 q 204 265 204 254 m 293 274 q 303 306 303 292 q 296 317 303 317 q 289 314 294 317 q 272 274 278 307 q 265 249 269 254 q 247 243 261 243 l 236 243 l 206 243 l 219 218 l 232 193 l 257 221 q 293 274 275 240 m 253 351 q 306 371 281 371 q 354 329 344 371 q 358 303 358 317 q 315 201 358 265 q 288 146 288 161 q 274 119 288 132 q 247 107 261 107 q 239 108 242 107 q 166 199 207 118 q 125 329 125 281 q 131 351 125 346 q 161 363 142 363 q 206 347 186 363 q 225 336 219 336 q 253 351 229 336 m 1304 372 q 1299 390 1304 388 q 1297 391 1297 390 q 1296 392 1297 392 q 1270 378 1286 392 q 1254 357 1254 365 q 1240 313 1254 349 q 1204 279 1226 279 q 1171 303 1181 279 q 1150 335 1163 321 q 1131 350 1138 350 q 1126 347 1129 350 q 1125 340 1125 346 q 1156 272 1125 317 q 1206 226 1188 226 q 1210 228 1208 226 q 1263 299 1222 236 q 1304 372 1304 361 m 1249 421 q 1306 438 1275 438 q 1336 428 1328 438 q 1350 386 1344 419 q 1351 372 1351 382 q 1296 260 1351 322 q 1247 186 1276 238 q 1206 140 1222 140 q 1182 160 1194 140 q 1133 226 1156 200 q 1094 288 1106 260 q 1076 360 1082 315 q 1075 382 1075 369 q 1088 404 1075 399 q 1117 413 1103 413 q 1161 392 1136 413 q 1194 372 1185 372 q 1213 389 1204 372 q 1249 421 1221 404 m 664 504 q 667 525 667 513 q 660 542 667 542 q 646 528 651 542 q 619 490 635 506 q 607 467 607 475 q 611 450 607 461 q 632 431 619 431 q 651 453 646 431 q 664 504 658 483 m 506 621 q 561 588 533 621 l 590 553 l 617 583 q 650 608 638 608 q 671 604 656 608 q 713 578 699 596 q 722 535 722 563 q 700 440 722 493 q 679 386 679 390 q 663 353 679 376 q 625 329 647 329 q 600 351 604 329 q 510 529 593 378 q 475 608 475 592 q 506 621 475 621 m 1417 778 q 1454 793 1439 793 q 1486 769 1474 793 q 1492 747 1492 760 q 1471 669 1492 728 q 1440 594 1450 608 q 1408 579 1429 579 q 1354 633 1389 579 q 1315 724 1319 688 q 1314 744 1314 732 q 1329 767 1314 761 q 1351 769 1338 769 q 1368 769 1357 769 q 1383 768 1379 768 q 1417 778 1404 768 m 263 874 q 271 908 271 899 q 268 913 271 913 q 249 881 263 913 q 213 833 232 839 q 204 811 196 828 q 221 796 211 796 q 263 874 238 796 m 104 982 q 121 986 114 986 q 163 954 135 986 l 194 921 l 228 954 q 282 988 261 988 q 288 987 285 988 q 293 986 292 986 q 338 949 338 985 q 332 915 338 932 q 254 721 304 822 q 217 704 247 704 q 196 715 196 704 q 156 789 196 728 q 79 946 79 904 q 104 982 79 972 m 1121 953 q 1114 971 1121 971 q 1085 943 1106 971 q 1047 882 1064 915 q 1014 844 1029 847 q 1001 838 1001 842 q 1011 810 1001 831 l 1026 776 l 1061 818 q 1104 886 1088 847 q 1121 953 1121 925 m 1083 993 q 1125 1003 1104 1003 q 1171 956 1171 1003 q 1169 940 1171 946 q 1133 850 1164 911 q 1069 747 1101 789 q 1019 706 1038 706 l 1015 706 q 956 794 982 710 q 925 863 949 818 q 894 933 901 908 q 888 965 888 958 q 896 979 888 975 q 921 988 908 988 q 972 958 947 988 l 999 931 l 1028 956 q 1083 993 1057 979 z "},"Y":{"ha":1678,"x_min":76,"x_max":1599,"o":"m 426 461 q 361 478 396 478 q 250 438 307 478 l 222 418 l 247 411 q 315 400 264 406 q 381 383 357 396 q 449 328 404 371 q 529 263 497 282 q 599 240 561 244 q 622 239 607 239 q 661 249 646 239 q 693 260 679 260 l 703 258 q 713 257 706 257 q 788 299 731 257 q 935 367 879 367 q 978 361 947 367 q 1125 300 1069 343 q 1183 271 1156 278 q 1265 263 1213 263 q 1328 269 1307 263 q 1393 321 1346 276 q 1440 375 1440 365 q 1439 376 1440 376 q 1376 351 1429 376 q 1261 315 1306 315 q 1192 329 1236 315 q 1111 368 1133 350 q 963 428 1033 428 q 879 403 919 428 q 832 365 838 376 q 781 333 824 351 q 704 310 738 314 q 679 308 694 308 q 611 328 651 308 q 510 399 554 356 q 426 461 461 443 m 336 529 q 381 536 375 535 l 382 536 q 460 504 401 536 q 546 446 519 472 q 692 363 631 363 q 740 372 718 363 q 813 415 763 381 q 965 486 917 486 q 983 485 978 486 q 1060 460 1011 481 q 1124 428 1108 440 q 1232 372 1163 390 q 1264 367 1254 367 q 1311 375 1282 367 q 1422 431 1361 389 q 1493 503 1482 472 q 1504 518 1499 515 q 1526 518 1510 521 q 1569 513 1557 513 q 1582 500 1582 513 q 1579 474 1582 499 q 1513 326 1571 410 q 1446 247 1476 274 q 1371 204 1415 221 q 1204 175 1296 175 q 1181 179 1185 175 q 1142 188 1172 188 q 1065 205 1115 188 q 978 243 1015 222 q 904 263 944 263 q 807 236 858 263 q 722 199 764 215 q 619 174 686 186 q 522 161 553 161 q 508 163 511 161 q 455 189 490 168 q 414 219 419 210 q 356 251 407 231 q 272 276 304 272 q 247 278 264 278 q 178 260 218 278 q 115 239 128 239 q 90 251 103 239 q 76 285 76 264 q 89 314 76 303 q 99 351 99 324 q 125 394 99 368 q 336 529 242 511 m 361 876 q 322 886 340 886 q 275 874 304 886 q 242 851 242 858 q 286 826 242 842 q 396 761 338 808 q 506 679 479 694 q 578 664 533 664 q 594 665 582 664 q 614 665 607 665 q 703 674 681 667 q 804 736 725 682 q 856 767 840 761 q 900 774 872 774 l 917 774 q 1125 715 1004 772 q 1307 667 1225 667 q 1317 667 1311 667 q 1325 668 1322 668 q 1408 713 1361 674 q 1481 803 1454 753 q 1500 849 1500 839 q 1497 853 1500 853 q 1438 810 1485 853 q 1314 751 1371 751 q 1203 794 1264 751 q 990 879 1081 879 q 825 807 906 879 q 714 735 769 758 q 647 714 668 714 q 607 719 631 714 q 519 760 556 729 q 361 876 399 860 m 233 914 q 303 938 269 938 q 316 937 307 938 q 331 936 325 936 q 402 922 378 935 q 525 836 426 908 q 600 785 576 799 q 647 771 624 771 q 701 788 672 771 q 796 854 731 806 q 993 936 904 936 q 1028 935 1015 936 q 1109 914 1071 931 q 1246 840 1147 897 q 1329 813 1294 813 q 1449 883 1383 813 q 1508 921 1482 921 q 1529 906 1525 921 q 1556 892 1533 889 q 1576 885 1569 892 q 1590 857 1582 879 q 1599 824 1599 835 q 1585 782 1599 811 q 1472 644 1550 710 q 1321 560 1394 579 q 1240 547 1272 547 q 1128 571 1201 547 q 894 638 936 638 q 842 650 857 638 q 826 657 832 657 q 783 640 815 657 q 625 599 719 607 q 471 588 496 588 q 408 607 435 588 q 329 663 356 646 q 264 693 285 693 q 233 690 258 693 q 174 685 183 685 q 111 708 135 685 q 96 743 96 726 q 128 814 96 767 q 233 914 168 871 z "},"Z":{"ha":736,"x_min":78,"x_max":658,"o":"m 426 75 q 383 94 407 94 q 350 90 371 94 q 315 51 315 85 q 340 14 315 28 q 364 6 356 6 q 401 17 371 6 q 444 47 444 36 q 426 75 444 57 m 301 160 q 351 171 322 168 q 426 149 378 171 q 489 107 474 126 q 507 53 507 83 q 460 -48 507 -1 q 351 -96 413 -94 l 350 -96 q 257 -56 292 -96 q 222 38 222 -15 q 301 160 222 124 m 525 1031 q 414 1090 486 1083 q 383 1092 401 1092 q 314 1069 347 1092 q 256 1036 290 1054 q 201 993 214 1013 q 183 931 188 974 q 181 897 181 906 q 192 843 181 872 q 201 806 201 818 q 196 789 201 796 q 190 772 190 779 q 196 764 190 764 q 210 771 200 764 q 219 804 219 779 q 217 846 219 810 q 214 888 214 879 q 231 949 214 914 q 262 992 244 979 q 322 1017 279 1006 q 358 1022 350 1022 q 454 985 389 1022 q 513 930 496 960 q 531 850 531 900 q 530 838 531 846 q 529 824 529 829 q 512 742 526 776 q 411 540 497 707 q 368 344 382 486 q 365 306 365 308 q 368 291 365 294 q 379 288 371 288 q 393 300 390 288 q 399 365 396 313 q 416 465 401 432 q 507 610 431 497 q 588 748 564 694 q 613 847 613 801 q 606 897 613 869 q 556 997 589 964 q 525 1031 544 1008 m 301 1132 q 400 1143 361 1143 q 557 1076 490 1143 q 658 853 658 976 q 615 679 658 771 q 577 607 594 635 q 504 504 560 579 q 463 438 472 461 q 453 381 453 415 q 454 340 453 356 q 456 306 456 326 q 440 249 456 261 q 368 238 424 238 q 274 259 299 238 q 249 346 249 281 q 251 406 249 358 q 275 519 257 475 q 349 647 293 564 q 428 801 428 767 q 426 815 428 811 q 399 876 421 843 q 360 921 378 910 q 340 928 346 928 q 315 915 332 928 q 283 838 283 890 q 289 811 283 821 q 297 772 297 799 q 255 711 297 739 q 169 683 213 683 q 124 700 140 683 q 78 865 81 746 l 78 872 q 96 972 78 931 q 161 1056 114 1013 q 227 1108 203 1096 q 301 1132 251 1121 z "},"a":{"ha":821,"x_min":75,"x_max":749,"o":"m 414 346 q 371 363 396 363 q 303 331 338 363 q 279 290 279 310 q 292 274 279 278 q 313 271 297 271 q 407 306 369 271 l 433 329 l 414 346 m 367 414 q 388 417 378 417 q 451 403 424 417 q 488 331 488 386 q 469 275 488 294 q 400 238 450 254 q 304 221 350 221 q 258 224 271 221 q 233 242 246 228 q 214 281 214 261 q 239 340 214 303 q 367 414 272 392 m 554 749 q 429 774 506 774 q 265 732 319 774 q 240 700 240 714 q 256 690 240 690 q 294 701 274 690 q 432 740 353 732 q 440 741 435 740 q 447 742 444 742 q 555 699 511 742 q 599 590 599 656 q 583 513 599 554 q 544 447 567 471 q 523 433 535 436 q 478 429 511 429 q 451 430 471 429 q 417 431 431 431 l 372 431 q 271 415 303 431 q 175 269 175 372 q 179 217 175 246 q 206 142 189 158 q 276 114 222 125 q 310 111 288 111 q 468 197 374 111 q 540 242 513 238 q 568 244 551 244 q 598 233 588 244 q 617 193 608 222 q 642 133 629 151 q 654 122 650 122 q 669 132 658 121 q 681 163 679 142 q 683 253 683 183 q 654 571 683 369 q 604 718 638 693 q 554 749 589 729 m 321 814 q 454 829 360 829 q 535 821 511 829 q 611 778 571 806 q 678 713 658 747 q 706 610 697 678 q 749 199 749 296 l 749 185 q 730 110 747 154 q 692 39 713 65 q 635 18 672 18 q 585 30 607 18 q 563 60 563 42 q 544 110 563 74 q 519 146 526 146 q 474 115 511 146 q 236 6 344 6 q 211 7 219 6 q 146 28 167 13 q 103 91 124 44 q 76 182 82 138 q 75 211 75 192 q 83 298 75 256 q 103 349 92 340 q 146 390 121 363 q 256 466 196 444 q 418 488 317 488 l 503 488 l 517 515 q 529 556 529 540 q 517 594 529 572 q 436 638 494 638 q 319 604 386 638 q 228 572 253 572 q 181 593 203 572 q 158 618 163 607 q 154 658 154 629 q 165 725 154 703 q 321 814 181 758 z "},"b":{"ha":840,"x_min":69,"x_max":767,"o":"m 483 515 q 418 535 442 535 q 365 522 397 535 l 333 510 l 338 419 q 352 319 339 343 q 425 257 365 296 q 499 229 469 229 q 547 254 526 229 q 575 358 575 288 l 575 385 q 552 462 574 432 q 483 515 531 492 m 383 628 q 450 636 417 636 q 590 588 544 636 q 644 408 644 532 q 619 265 644 331 q 553 178 594 199 q 504 167 532 167 q 363 232 440 167 q 292 303 299 286 q 281 422 285 319 q 278 514 278 489 q 281 565 278 554 q 314 601 285 583 q 383 628 343 618 m 226 1044 q 211 1064 218 1064 q 178 983 193 1064 q 168 686 168 935 q 189 119 168 165 q 213 100 197 100 q 276 151 239 100 q 329 190 306 190 q 372 165 349 190 q 504 111 424 111 q 621 149 569 111 q 699 283 658 174 q 713 432 713 325 q 707 524 713 492 q 660 653 693 618 q 544 699 628 688 q 489 703 510 703 q 407 689 463 703 q 328 674 349 674 q 299 683 308 674 q 278 717 289 692 q 260 810 260 751 l 260 844 l 260 861 q 226 1044 260 960 m 120 1065 q 133 1085 120 1065 q 168 1117 146 1106 q 203 1128 190 1128 q 251 1115 219 1128 q 292 1079 292 1100 q 289 1069 292 1075 q 299 1040 285 1063 q 313 938 313 1018 q 312 884 313 919 q 311 832 311 849 q 324 743 311 756 q 346 731 336 731 q 404 743 354 731 q 496 753 439 753 q 635 735 574 753 q 761 526 738 703 q 767 440 767 488 q 724 204 767 311 q 617 71 681 97 q 572 44 593 63 q 523 25 561 35 q 458 15 485 15 q 446 17 450 15 q 426 20 443 17 q 400 25 410 24 q 344 56 371 29 l 319 81 l 288 54 q 194 8 238 8 q 169 11 186 8 q 85 69 100 26 q 72 433 76 89 q 69 786 69 778 q 78 938 69 906 q 90 997 85 961 q 120 1065 94 1025 z "},"c":{"ha":731,"x_min":75,"x_max":656,"o":"m 550 703 q 457 713 522 713 q 338 697 372 713 q 260 633 307 683 q 192 540 213 582 q 174 489 178 513 q 171 396 171 465 l 171 356 q 175 291 171 310 q 197 238 179 272 q 246 167 222 188 q 426 99 338 99 q 479 106 449 99 q 550 134 517 115 q 583 165 583 153 q 586 182 583 171 q 589 197 589 193 q 583 213 589 206 q 571 219 579 219 q 543 210 563 219 q 394 172 467 172 q 317 185 354 172 q 268 208 281 197 q 238 254 256 219 q 203 372 203 319 q 208 425 203 386 q 238 522 218 483 q 297 597 257 560 q 365 649 340 638 q 431 661 389 661 q 493 658 443 661 q 561 656 557 656 q 592 664 592 656 q 550 703 592 689 m 404 769 q 447 772 432 772 q 608 747 546 772 q 644 708 633 735 q 656 675 656 686 q 646 636 656 661 q 571 531 617 546 q 467 518 546 524 q 331 486 388 515 q 276 449 286 464 q 267 385 267 433 q 356 246 267 281 q 397 239 374 239 q 510 263 443 239 q 585 279 556 279 q 622 274 597 279 q 638 259 635 269 q 642 207 642 249 q 634 135 642 165 q 615 104 626 104 q 600 79 610 104 q 579 54 593 54 q 547 44 564 54 q 464 13 522 31 q 383 -4 406 -4 q 285 10 351 -4 q 193 35 218 24 q 89 178 142 61 q 75 256 75 211 q 76 311 75 288 q 106 481 81 407 q 185 632 131 554 q 281 734 236 706 q 404 769 326 763 z "},"d":{"ha":769,"x_min":75,"x_max":700,"o":"m 428 497 q 391 531 404 522 q 354 540 378 539 q 333 542 346 542 q 267 497 288 542 q 247 383 247 456 q 254 329 247 344 q 342 271 278 271 q 410 294 381 271 q 486 386 486 350 q 481 399 486 394 q 468 431 474 404 q 428 497 464 457 m 319 642 q 381 654 350 654 q 436 647 399 654 q 515 594 471 640 q 565 527 551 556 q 579 461 579 499 q 566 385 579 417 q 517 311 553 353 q 429 234 468 256 q 342 213 390 213 q 245 244 281 213 q 196 343 210 275 q 190 392 190 374 q 225 544 190 467 q 265 609 244 588 q 319 642 286 631 m 633 904 q 614 969 629 936 q 590 986 599 999 q 575 908 575 969 q 578 797 575 894 q 581 701 581 708 q 569 642 581 654 q 542 626 558 626 q 537 627 540 626 q 531 628 533 628 q 504 640 504 631 q 482 672 504 653 q 369 711 439 711 q 200 642 269 711 q 164 586 171 613 q 150 454 157 560 q 149 441 150 450 q 149 428 149 432 q 175 275 149 347 q 242 176 201 203 q 332 154 274 154 q 489 203 429 154 q 536 228 519 228 q 567 188 558 228 q 589 151 575 151 q 593 152 590 151 q 597 153 596 153 q 626 168 617 156 q 644 578 644 193 q 633 904 644 815 m 524 1038 q 582 1063 549 1063 q 685 951 651 1063 q 698 849 696 915 q 700 533 700 783 q 690 133 699 160 q 639 74 682 101 q 574 47 597 47 q 526 67 553 47 l 500 86 l 446 65 q 358 46 396 46 q 344 47 354 46 q 326 47 333 47 q 236 64 257 53 q 164 133 213 76 q 101 244 115 189 q 75 401 75 344 q 100 542 75 454 q 165 678 126 633 q 283 754 203 722 q 375 774 331 774 q 442 761 411 774 q 468 754 460 754 q 486 790 486 754 q 482 851 486 811 q 479 908 479 872 q 524 1038 479 992 z "},"e":{"ha":796,"x_min":75,"x_max":724,"o":"m 413 617 q 371 636 375 636 q 351 625 367 636 q 328 593 340 617 q 317 556 317 569 q 318 549 317 550 q 381 543 324 543 q 474 551 465 543 q 478 561 478 556 q 413 617 478 585 m 360 701 q 417 711 381 711 q 511 689 482 711 q 569 586 560 649 q 571 567 571 578 q 546 518 571 547 l 518 485 l 392 482 q 359 481 379 482 q 331 481 339 481 q 253 487 275 481 q 232 511 232 493 q 249 558 232 522 q 265 603 258 578 q 302 653 265 615 q 360 701 339 690 m 454 751 q 394 761 406 761 q 302 722 356 760 q 249 657 249 683 q 215 601 249 640 q 160 419 160 538 q 193 260 160 333 q 246 186 210 224 q 311 139 282 149 q 438 119 360 119 q 574 143 522 119 q 638 191 610 160 q 665 244 665 222 q 651 265 665 260 l 649 265 q 582 235 631 265 q 438 182 506 182 q 411 183 419 182 q 240 308 293 197 q 215 386 215 361 q 228 424 215 407 q 244 438 235 435 q 288 442 254 442 q 368 440 332 442 q 425 439 389 439 q 599 475 569 439 q 624 488 608 488 q 654 536 654 488 q 629 629 654 578 q 454 751 582 724 m 378 825 q 401 828 389 828 q 497 812 442 828 q 565 779 553 796 q 610 748 575 768 q 654 718 644 728 q 691 652 669 704 q 718 561 713 600 q 719 539 719 554 q 694 449 719 476 q 628 396 658 396 q 568 369 610 396 l 531 342 l 418 343 l 389 343 q 307 328 307 343 q 344 282 307 317 q 419 240 382 246 q 451 238 444 238 q 550 282 497 238 q 651 333 610 333 q 681 326 667 333 q 715 301 706 314 q 724 264 724 288 q 723 254 724 261 q 722 243 722 247 q 694 163 719 207 q 635 86 669 119 q 528 31 601 56 q 390 3 454 6 l 383 3 q 301 19 339 3 q 201 82 264 35 q 114 188 150 122 q 85 253 92 231 q 76 333 79 275 q 76 352 76 340 q 75 369 75 364 q 156 640 75 514 q 264 764 201 714 q 347 818 329 814 q 364 822 353 819 q 378 825 375 824 z "},"f":{"ha":633,"x_min":78,"x_max":554,"o":"m 479 1015 q 449 1038 479 1031 q 393 1046 419 1046 q 333 1019 358 1046 q 288 972 304 988 q 239 831 239 924 q 231 768 239 782 q 193 754 222 754 q 153 749 167 754 q 140 739 140 742 q 172 729 140 729 q 224 713 211 729 q 238 649 238 697 q 237 634 238 644 q 236 618 236 624 l 236 586 q 240 504 236 528 q 249 315 246 476 q 256 182 251 218 q 271 146 260 146 q 283 153 276 146 q 297 290 297 169 q 285 472 297 401 q 271 606 271 547 q 297 693 271 682 q 360 703 308 697 q 413 724 411 708 q 413 727 413 725 q 414 731 414 729 q 344 758 414 758 q 300 762 310 758 q 283 779 290 765 q 274 846 274 799 q 285 925 274 896 q 418 997 314 993 q 479 1015 479 999 m 332 1083 q 403 1103 375 1103 q 463 1099 424 1103 q 554 1028 554 1089 q 553 1021 554 1025 q 553 1015 553 1017 q 512 942 549 974 q 393 881 475 911 q 362 857 376 875 q 347 825 347 839 q 385 821 347 821 q 435 815 421 821 q 465 776 449 810 q 481 721 481 743 q 447 670 481 694 q 376 646 414 646 q 344 642 350 646 q 338 615 339 638 q 337 604 338 611 q 336 593 336 597 q 356 438 336 578 q 364 293 364 385 q 357 160 364 219 q 347 107 353 121 q 324 78 342 93 q 260 47 300 58 q 232 43 243 43 q 165 93 196 43 q 151 147 154 113 q 147 311 149 181 q 139 583 147 492 q 126 662 133 644 q 90 694 118 679 q 78 736 78 703 q 93 794 78 776 q 118 810 111 813 q 126 808 121 808 q 156 863 146 808 q 218 990 167 925 q 332 1083 269 1054 z "},"g":{"ha":810,"x_min":75,"x_max":739,"o":"m 350 546 q 328 554 344 554 q 298 522 314 554 q 269 440 282 490 q 265 406 265 424 q 304 303 265 349 q 393 257 343 257 q 419 261 407 257 q 469 286 440 268 q 511 321 497 304 q 518 360 518 331 q 501 449 518 411 q 449 509 488 479 q 385 539 411 539 l 383 539 q 350 546 354 536 m 393 678 q 440 685 421 685 q 483 678 458 685 q 551 635 515 669 q 601 565 588 600 q 613 492 613 535 q 612 476 613 488 q 611 457 611 464 q 582 328 608 381 q 528 251 558 278 q 462 220 507 236 q 393 204 417 204 q 274 257 326 204 q 213 404 213 315 q 232 517 213 451 q 292 626 256 590 q 393 678 328 663 m 651 774 q 624 796 640 796 q 610 790 615 796 q 604 749 604 785 q 599 701 604 715 q 575 689 594 689 q 524 706 550 689 q 429 732 481 732 q 365 724 400 732 q 288 700 310 711 q 242 661 264 688 q 221 617 221 635 q 211 586 221 596 q 172 471 175 547 q 168 413 169 419 l 168 404 q 178 333 168 376 q 200 268 188 289 q 269 183 219 232 q 344 124 318 135 q 408 113 374 113 q 474 124 444 113 q 535 174 503 136 q 588 211 568 211 l 593 211 q 613 203 607 210 q 622 175 618 196 q 625 132 625 164 q 607 -6 625 53 q 534 -90 590 -57 q 414 -124 478 -124 q 343 -110 375 -124 q 272 -96 308 -96 q 238 -107 238 -96 q 369 -156 238 -136 q 440 -161 404 -161 q 578 -110 522 -161 q 628 -42 613 -78 q 661 75 644 -7 q 676 260 676 151 q 675 388 676 335 q 651 774 669 732 m 576 832 q 633 856 603 856 q 694 826 669 856 q 728 756 718 799 q 739 428 736 717 l 739 328 q 721 54 739 144 q 653 -174 689 -104 q 610 -222 642 -194 q 550 -265 579 -250 q 421 -283 515 -283 q 278 -268 328 -282 q 190 -218 229 -254 q 149 -144 151 -183 q 147 -124 147 -136 q 161 -76 147 -103 q 239 -33 188 -33 q 321 -44 265 -33 q 429 -61 396 -61 q 493 -47 464 -61 q 558 32 544 -24 q 561 46 561 43 q 554 53 561 53 q 501 38 544 53 q 399 24 464 24 l 372 24 q 298 29 318 25 q 250 50 278 33 q 135 172 160 106 q 97 222 121 210 l 75 236 l 76 349 q 81 453 78 426 q 100 519 85 479 q 196 693 146 639 q 332 771 246 747 q 440 786 386 786 q 518 775 485 786 q 544 790 536 768 q 576 832 553 814 z "},"h":{"ha":813,"x_min":69,"x_max":739,"o":"m 200 689 q 189 879 194 724 q 178 1033 183 1033 q 168 726 168 1033 q 183 207 168 279 q 199 149 193 154 q 213 161 201 144 l 214 164 q 226 342 225 185 q 240 533 228 503 q 285 616 263 592 q 358 664 307 640 q 415 678 390 678 q 449 675 424 678 q 533 651 499 669 q 608 571 590 624 q 626 367 625 518 q 654 138 631 138 q 671 150 661 138 q 678 189 678 160 q 672 294 678 194 q 649 533 664 418 q 611 672 639 617 q 566 728 597 703 q 507 760 535 754 q 474 763 490 763 q 343 740 388 763 q 299 710 318 728 q 279 682 279 692 q 265 664 279 672 q 235 656 250 656 q 225 657 228 656 q 200 689 207 661 m 136 1115 q 168 1119 150 1119 q 243 1089 229 1119 q 249 927 244 1086 q 257 764 254 768 q 264 761 258 761 q 297 776 275 761 q 383 813 326 796 q 478 829 440 829 q 590 790 539 829 q 675 676 642 750 q 703 585 694 633 q 721 424 713 538 q 735 294 731 299 q 739 251 739 286 q 726 136 739 164 q 713 96 713 108 q 692 64 713 81 q 647 43 671 47 q 628 40 633 40 q 561 74 597 40 q 542 108 546 88 q 535 226 539 129 q 490 515 526 444 q 403 579 456 579 q 358 572 375 579 q 314 539 342 564 q 292 508 297 524 q 281 451 286 493 q 276 397 276 419 q 282 353 276 369 q 286 308 286 335 q 281 214 286 269 q 265 99 272 128 q 240 65 257 71 q 213 49 228 61 q 185 40 204 40 q 119 65 147 40 q 99 95 106 76 q 85 164 93 114 q 69 353 69 242 q 76 654 69 415 q 82 931 82 810 l 82 960 q 81 975 81 964 q 90 1039 81 1001 q 110 1093 99 1076 q 136 1115 124 1113 z "},"i":{"ha":367,"x_min":74,"x_max":296,"o":"m 214 711 q 196 736 203 736 q 185 724 189 736 q 181 621 181 711 q 188 340 181 499 q 201 160 194 181 q 213 146 207 146 q 225 174 221 146 q 233 371 233 225 q 214 711 233 660 m 157 782 q 204 796 188 796 q 246 781 226 796 q 296 388 292 746 l 296 324 q 282 143 296 193 q 240 56 268 88 q 175 25 211 25 q 151 28 160 25 q 131 42 138 32 q 113 83 124 51 q 99 175 101 117 q 94 417 96 233 q 94 507 94 454 q 93 576 93 560 q 97 689 93 664 q 111 735 100 714 q 157 782 132 771 m 222 1019 q 197 1036 206 1036 q 175 1015 188 1036 q 165 986 165 1000 q 190 943 165 958 q 206 938 201 938 q 227 951 218 938 q 236 983 236 965 q 222 1019 236 1006 m 126 1104 q 174 1118 146 1118 q 253 1081 219 1118 q 294 986 294 1033 q 249 897 294 936 q 160 851 196 851 q 131 861 142 851 q 74 989 74 903 q 126 1104 74 1071 z "},"j":{"ha":499,"x_min":81,"x_max":431,"o":"m 356 75 q 367 583 367 386 q 360 721 367 721 q 344 659 347 721 q 339 336 342 597 q 335 41 338 107 q 324 -51 333 -25 q 289 -112 308 -94 q 233 -131 269 -131 l 224 -131 l 214 -131 q 169 -136 178 -131 q 163 -150 163 -140 q 189 -186 163 -172 q 233 -196 208 -196 q 328 -147 297 -196 q 345 -93 342 -126 q 356 75 349 -60 m 351 814 q 367 817 360 817 q 414 789 397 817 q 428 560 428 767 q 415 -67 428 290 q 383 -210 413 -144 q 314 -293 353 -276 q 225 -303 290 -303 q 163 -297 181 -303 q 118 -269 153 -294 q 81 -179 81 -239 q 136 -61 81 -101 q 185 -37 169 -37 q 215 -15 199 -37 q 242 42 232 8 q 261 229 251 71 q 269 413 269 381 q 265 557 269 447 q 263 643 263 624 q 269 722 263 699 q 303 776 275 744 q 351 814 332 807 m 360 989 q 344 1004 350 1004 q 326 991 335 1004 q 318 963 318 978 q 322 944 318 947 q 343 940 326 940 q 369 960 369 940 q 360 989 369 969 m 306 1071 q 332 1074 325 1074 q 411 1022 390 1074 q 431 950 431 976 q 418 906 431 928 q 390 870 404 878 q 326 857 375 863 q 297 856 314 856 q 251 876 274 856 q 218 951 218 906 q 229 1006 218 975 q 306 1071 251 1061 z "},"k":{"ha":743,"x_min":69,"x_max":665,"o":"m 221 1054 q 189 1072 211 1072 q 179 1065 179 1072 q 178 1049 179 1064 q 176 1006 178 1035 q 174 954 175 978 q 169 615 169 851 q 176 175 169 219 q 201 131 183 132 l 207 131 q 228 171 221 131 q 238 301 238 213 q 248 408 238 381 q 290 442 258 436 q 304 443 294 443 q 363 424 332 443 q 411 374 393 404 q 511 219 447 314 q 581 122 575 125 l 583 122 q 593 142 593 122 q 585 178 593 158 q 508 313 558 232 q 432 422 457 394 q 396 478 396 464 q 440 555 396 492 q 514 647 483 618 q 553 710 553 686 q 542 721 553 721 q 474 685 522 721 q 385 606 426 650 q 319 551 354 574 q 263 529 285 529 q 229 551 238 529 q 221 661 221 574 q 224 807 221 685 q 226 957 226 932 q 221 1054 226 1040 m 116 1092 q 125 1111 116 1092 q 146 1132 135 1129 q 167 1135 157 1135 q 258 1107 224 1135 l 283 1085 l 288 972 q 289 890 289 949 q 286 758 289 828 q 283 683 283 697 q 297 613 283 613 q 365 667 306 613 q 553 769 479 769 q 558 769 556 769 q 564 768 561 768 q 621 726 621 760 q 593 638 621 700 q 533 528 565 576 l 488 461 l 503 439 q 632 229 574 338 q 665 122 665 167 q 660 81 665 92 q 632 49 656 69 q 528 4 583 4 q 393 178 481 4 q 319 307 339 285 l 297 333 l 296 288 q 274 136 294 207 q 224 36 254 65 q 160 14 206 18 l 115 11 l 97 51 q 69 194 69 113 q 72 267 69 214 q 82 679 79 407 q 92 1025 85 989 q 116 1092 97 1056 z "},"l":{"ha":431,"x_min":69,"x_max":353,"o":"m 194 1007 q 174 1036 176 1036 q 163 1008 172 1036 q 156 825 156 985 q 157 633 156 710 q 168 203 161 282 q 203 124 175 124 q 224 126 207 124 q 258 143 258 133 q 240 158 258 150 q 206 215 219 168 q 196 325 196 251 q 208 631 196 410 q 209 665 208 639 q 210 739 210 692 q 211 819 211 786 l 211 899 q 194 1007 211 981 m 142 1101 q 178 1118 171 1118 q 215 1100 183 1118 q 260 1049 249 1081 q 272 861 272 1010 q 268 639 272 769 q 258 336 258 374 q 260 288 258 307 q 263 260 263 269 q 272 242 264 250 q 281 234 281 235 q 296 226 282 233 q 342 181 324 208 q 353 150 353 163 q 342 114 353 136 q 297 50 326 81 q 244 24 271 24 l 236 24 q 199 21 204 26 q 176 14 192 14 q 119 30 151 14 q 76 67 88 46 q 69 314 69 78 l 69 475 q 71 864 71 626 l 71 939 l 71 964 q 90 1049 71 1015 q 142 1101 111 1085 z "},"m":{"ha":1197,"x_min":71,"x_max":1125,"o":"m 956 711 q 872 736 914 736 q 736 669 807 736 q 653 625 699 633 l 606 614 l 544 647 q 482 685 482 679 q 437 710 482 693 q 371 726 392 726 q 310 703 346 726 q 268 660 275 679 q 250 639 264 644 q 203 604 233 632 q 167 543 176 579 q 157 431 157 507 q 160 329 157 410 q 169 181 164 217 q 185 139 174 146 q 197 133 196 133 q 214 170 210 133 q 222 328 218 207 q 232 478 228 450 q 256 546 236 506 q 287 597 272 581 q 333 635 301 614 q 425 668 383 668 q 494 642 465 668 q 551 554 525 611 l 578 496 l 576 358 l 576 321 q 619 108 576 108 q 629 110 626 108 q 649 136 640 114 q 679 340 665 175 q 731 574 693 508 q 796 629 751 608 q 867 650 842 650 q 910 642 885 650 q 956 614 942 631 q 985 551 971 597 q 1008 310 1006 492 q 1019 119 1014 125 q 1026 117 1022 117 q 1054 175 1038 117 q 1071 328 1071 239 q 1060 485 1071 393 q 1025 638 1046 592 q 956 711 1004 683 m 276 765 q 382 797 340 797 q 399 796 393 797 q 472 772 428 790 q 515 744 515 753 q 528 735 515 735 q 571 714 539 735 q 625 693 600 693 q 699 726 656 693 q 790 781 744 761 q 854 797 832 797 q 897 793 869 797 q 1006 760 972 783 q 1074 669 1039 738 q 1109 562 1100 618 q 1124 367 1118 506 q 1125 315 1125 349 q 1050 36 1125 117 l 1017 -1 l 969 18 q 908 47 922 36 q 881 88 894 58 q 868 160 868 117 q 871 246 868 168 q 872 326 872 275 q 846 515 872 443 q 818 549 833 549 q 800 533 808 549 q 778 517 790 517 q 755 481 763 517 q 744 386 747 446 q 739 317 740 326 q 724 211 736 293 q 664 51 707 72 q 621 24 642 42 q 586 6 603 8 l 583 6 q 527 24 564 6 q 483 56 490 42 q 471 232 476 68 q 456 419 465 363 q 421 514 446 475 q 376 547 401 543 q 351 550 357 550 q 295 495 310 550 q 276 275 281 440 q 260 121 274 168 q 211 39 247 74 q 168 17 189 17 q 122 43 144 17 q 82 154 92 76 q 71 446 72 232 l 71 482 q 96 719 71 654 q 126 746 101 735 q 176 757 150 757 q 200 754 186 757 q 229 750 217 750 q 276 765 247 750 z "},"n":{"ha":808,"x_min":71,"x_max":736,"o":"m 574 683 q 490 714 538 713 q 474 715 485 714 q 458 715 463 715 q 426 713 438 715 q 364 688 399 706 q 329 663 329 669 q 321 651 329 651 q 275 614 313 651 q 210 575 240 575 q 182 590 193 575 q 174 599 175 599 q 167 538 168 599 q 158 385 161 415 q 156 317 156 338 q 170 183 156 233 q 208 132 185 132 q 226 207 226 132 q 224 299 226 261 q 222 372 222 326 q 231 466 222 433 q 267 538 240 499 q 345 621 301 590 q 431 651 389 651 q 558 546 510 651 q 585 461 579 503 q 597 304 592 419 q 635 124 606 124 q 671 296 667 124 l 671 339 q 635 600 671 536 q 624 620 631 606 q 615 639 618 635 q 574 683 607 657 m 401 774 q 478 785 449 785 q 575 761 521 785 q 653 707 626 738 q 707 606 679 676 q 718 556 714 588 q 724 499 722 525 q 730 429 726 472 q 735 367 733 386 q 736 322 736 353 q 728 194 736 256 q 707 117 719 133 q 679 64 692 93 q 658 36 671 43 q 611 29 646 29 q 558 31 579 29 q 522 64 532 32 q 504 186 511 96 q 479 435 492 375 q 443 515 471 488 q 408 538 421 538 q 381 532 406 538 q 317 485 347 524 q 289 431 292 453 q 285 267 286 408 q 274 103 283 143 q 231 39 265 63 q 183 17 200 17 q 136 39 167 17 q 94 85 106 60 q 79 171 83 111 q 72 386 75 231 q 71 529 71 446 q 81 650 71 639 q 101 686 89 658 q 135 718 108 703 q 182 733 161 733 l 188 733 q 219 706 207 731 q 226 693 222 700 q 233 682 231 686 q 236 676 236 678 q 257 694 239 671 q 318 740 275 715 q 401 774 361 764 z "},"o":{"ha":783,"x_min":75,"x_max":710,"o":"m 410 586 q 393 592 401 592 q 278 519 350 592 q 232 428 232 474 q 242 365 232 400 q 301 260 257 304 q 388 215 344 215 q 442 231 414 215 q 485 269 471 247 q 499 361 499 289 q 486 468 499 428 q 452 534 478 494 q 410 586 426 574 m 561 647 q 506 694 535 674 q 468 714 478 714 q 464 711 464 714 q 481 688 464 704 q 543 622 526 646 q 575 551 560 597 q 601 421 601 465 q 569 289 601 368 q 494 199 550 242 q 399 157 439 157 q 327 172 357 157 q 260 226 297 188 q 197 307 210 278 q 181 403 185 336 q 172 464 179 464 q 168 458 169 464 q 160 363 163 443 q 240 154 160 233 q 381 92 303 92 q 499 122 438 92 q 549 154 532 139 q 590 206 565 169 q 646 382 646 290 q 644 424 646 410 q 561 647 631 578 m 331 701 q 374 715 342 701 q 414 729 406 728 q 411 732 424 731 l 383 733 l 369 733 q 311 715 331 733 q 268 683 278 690 q 243 646 243 668 q 244 643 243 643 q 281 668 250 643 q 331 701 324 701 m 249 772 q 306 805 289 800 q 367 810 322 810 q 456 800 425 810 q 538 757 488 790 q 669 616 631 697 q 710 400 708 535 l 710 375 q 693 257 710 300 q 619 138 679 219 q 535 43 558 56 q 346 4 467 6 q 265 7 285 4 q 224 24 244 10 q 179 60 190 44 q 135 110 172 72 q 104 169 104 140 q 96 204 104 193 q 75 389 75 225 l 75 404 q 99 550 76 488 q 164 690 135 647 q 249 772 193 733 z "},"p":{"ha":821,"x_min":71,"x_max":747,"o":"m 474 471 q 432 488 446 488 q 379 453 414 488 q 345 412 351 425 q 339 369 339 399 q 401 239 339 282 q 463 217 432 217 q 508 228 482 217 q 530 246 524 236 q 539 279 536 256 q 542 310 542 299 q 522 406 542 360 q 474 471 503 453 m 419 625 q 474 642 453 642 q 519 626 493 642 q 557 610 546 610 q 625 535 589 610 q 651 411 651 481 q 622 270 651 335 q 543 182 592 206 q 492 150 507 165 q 463 140 481 140 q 374 178 424 140 q 301 265 324 217 q 279 381 279 318 q 301 493 279 442 q 419 625 346 588 m 656 581 q 641 618 656 581 q 576 681 626 656 q 482 706 526 706 q 393 672 431 706 q 357 649 372 654 q 333 624 343 643 q 301 590 325 607 q 263 574 278 574 l 260 574 q 199 638 228 581 q 172 668 183 668 q 165 658 165 668 q 165 627 165 649 q 164 594 164 606 q 170 310 164 507 q 178 44 176 113 q 190 -171 181 -149 q 214 -193 199 -193 q 235 -176 225 -193 q 246 -25 246 -157 q 242 115 246 47 q 240 160 240 135 q 244 184 240 178 q 258 196 247 190 q 279 203 269 203 q 310 174 294 203 q 363 131 321 154 q 408 106 404 108 q 464 90 428 90 q 524 101 493 90 q 594 150 553 113 q 660 238 642 190 q 683 372 679 286 q 684 388 683 378 q 685 404 685 399 q 656 581 685 507 m 451 768 q 486 769 463 769 q 614 743 568 769 q 725 585 688 699 q 744 512 740 543 q 747 404 747 481 q 744 294 747 319 q 724 226 740 269 q 692 161 701 168 q 685 133 685 154 q 637 59 685 110 q 547 -12 589 8 q 457 -37 508 -32 q 431 -39 446 -39 q 363 -18 404 -39 q 318 -3 329 -3 q 313 -6 313 -3 q 306 -122 311 -12 q 288 -250 301 -229 q 242 -285 276 -268 q 182 -303 207 -301 q 138 -278 164 -303 q 104 -228 111 -253 q 83 39 94 -193 q 71 472 72 271 l 71 539 q 83 669 71 658 q 103 703 99 681 q 140 733 108 726 q 189 743 169 743 q 231 715 203 743 q 258 672 258 688 q 265 661 258 661 q 321 700 278 661 q 388 752 365 740 q 451 768 410 764 z "},"q":{"ha":950,"x_min":75,"x_max":871,"o":"m 415 518 q 350 543 385 543 q 318 532 329 543 q 293 515 307 521 q 264 469 275 508 q 253 381 253 429 q 272 279 253 313 q 374 213 310 213 l 378 213 q 449 236 419 213 q 486 276 476 257 q 501 333 496 294 q 503 356 503 340 q 415 518 503 450 m 483 711 q 451 718 481 718 q 369 707 417 718 q 293 681 321 696 q 213 606 239 649 q 168 471 186 563 q 156 385 156 408 q 161 342 156 372 q 187 272 168 311 q 215 233 206 233 l 217 235 q 218 238 218 236 q 207 283 218 244 q 194 382 194 324 q 222 531 194 478 q 332 656 267 615 q 401 671 354 671 q 501 649 458 671 q 574 584 554 621 q 594 472 594 547 q 593 418 594 438 q 572 292 589 333 q 503 201 554 251 q 456 165 472 174 q 407 153 440 157 q 382 151 399 151 q 256 193 300 151 q 236 207 239 207 q 233 201 233 207 q 240 176 233 192 q 399 113 267 113 l 419 113 q 487 121 464 113 q 553 160 510 129 q 596 179 581 179 q 635 83 635 179 q 634 69 635 79 q 633 53 633 58 l 633 35 q 643 -122 633 -31 q 663 -222 653 -212 q 672 -226 667 -226 q 772 -144 711 -226 q 804 -87 804 -101 q 801 -85 804 -85 q 781 -97 794 -85 q 746 -111 767 -111 q 703 -87 715 -111 q 668 400 672 -32 q 656 700 667 682 l 646 719 l 614 700 q 574 688 589 688 q 535 693 558 688 q 483 711 489 703 m 617 808 q 653 818 632 818 q 703 794 683 818 q 735 685 728 760 q 744 396 743 611 q 751 54 747 117 q 757 -3 754 10 q 767 -15 760 -15 q 775 -14 772 -15 q 825 -3 808 -3 q 858 -18 846 -3 q 871 -47 871 -31 q 864 -107 871 -58 q 717 -328 842 -267 q 639 -353 667 -353 q 602 -330 614 -353 q 585 -253 590 -307 q 574 -149 583 -229 q 564 -25 565 -69 q 540 13 561 13 q 511 3 526 13 q 442 -23 489 -11 q 368 -35 396 -35 q 281 -6 333 -35 q 181 69 228 24 q 130 126 144 106 q 104 182 115 147 q 75 365 75 276 q 81 432 75 406 q 101 492 90 486 q 126 549 107 494 q 158 632 150 617 q 213 699 172 658 q 283 754 254 739 q 446 782 342 782 q 550 772 503 782 q 589 782 579 768 q 617 808 601 800 z "},"r":{"ha":693,"x_min":72,"x_max":618,"o":"m 531 706 q 476 729 507 729 q 460 728 465 729 q 339 663 400 718 q 254 599 301 625 q 236 593 244 593 q 204 646 211 593 q 192 688 199 688 q 174 386 174 688 q 186 139 174 172 q 206 117 192 126 q 233 107 221 107 q 243 110 240 107 q 250 285 247 114 q 257 469 253 421 q 275 533 261 518 q 292 565 288 549 q 306 585 297 585 q 314 594 314 585 q 340 624 314 604 q 407 642 367 642 q 467 629 438 642 q 504 619 486 619 q 543 656 538 619 q 544 672 544 663 q 531 706 544 690 m 414 782 q 474 793 442 793 q 576 749 535 793 q 618 643 618 706 q 600 567 618 604 q 506 500 568 500 q 442 510 476 500 q 413 515 424 515 q 372 497 400 515 q 327 438 335 471 q 318 275 319 406 q 308 103 315 119 q 267 41 297 75 q 213 -4 236 7 q 183 -12 189 -12 q 169 -8 178 -12 q 147 0 160 -3 q 88 58 104 8 q 72 249 72 108 q 78 503 72 363 l 85 694 l 114 724 q 207 763 153 763 q 274 729 256 763 l 285 710 l 314 732 q 414 782 346 757 z "},"s":{"ha":738,"x_min":76,"x_max":663,"o":"m 528 726 q 422 749 497 749 q 382 746 407 749 q 258 701 314 736 q 201 632 201 665 q 216 564 201 611 q 238 517 231 517 q 244 506 244 517 q 357 422 244 478 q 454 361 435 383 q 526 247 518 289 q 527 240 526 244 q 528 235 528 236 q 506 199 528 217 q 319 138 440 140 l 301 138 q 222 160 256 138 q 189 176 197 176 q 176 169 183 176 q 169 153 169 163 q 239 88 169 119 q 306 65 283 65 q 368 71 329 65 q 569 168 533 90 q 597 257 597 228 q 588 293 597 274 q 549 346 574 319 q 501 383 524 372 q 431 436 486 392 q 360 488 375 481 q 310 537 333 501 q 286 599 286 572 q 320 672 286 643 q 401 700 354 700 q 456 689 426 700 q 519 676 486 676 q 548 679 542 676 q 554 692 554 682 q 528 726 554 708 m 315 789 q 436 806 381 806 q 606 742 557 806 q 626 658 626 710 q 621 611 626 632 q 582 563 613 576 q 531 549 554 549 q 469 558 507 549 q 431 564 447 564 q 418 561 421 564 q 415 554 415 558 q 503 475 415 539 q 626 364 589 411 q 663 267 663 317 q 643 186 663 232 q 626 145 639 174 q 611 108 614 117 q 533 27 600 81 q 428 -37 467 -26 q 289 -61 354 -61 q 204 -47 236 -61 q 152 -9 181 -36 q 114 40 124 18 q 76 156 76 128 q 93 213 76 185 q 136 254 110 240 q 176 285 164 267 q 196 297 186 297 q 217 292 204 297 q 254 250 244 281 q 344 199 274 199 q 378 206 371 199 q 388 244 385 214 q 388 250 388 247 q 389 254 389 253 q 364 283 389 269 q 322 311 344 292 q 283 339 300 331 q 253 357 265 347 q 229 374 240 367 q 167 470 199 390 q 136 608 136 550 l 136 621 q 168 699 140 654 q 222 757 196 743 q 315 789 254 774 z "},"t":{"ha":679,"x_min":76,"x_max":601,"o":"m 364 824 q 349 890 361 869 q 326 911 336 911 q 314 870 321 911 q 306 794 307 829 q 225 729 304 739 q 190 721 197 725 q 183 704 183 717 q 189 688 183 690 q 219 685 194 685 q 275 669 264 685 q 286 586 286 654 l 286 532 l 286 503 q 297 288 286 394 q 322 165 308 181 q 335 144 335 153 q 360 110 336 133 q 406 76 385 86 q 443 69 426 69 q 508 89 479 69 q 536 136 536 108 q 499 181 536 181 q 488 179 492 181 q 458 176 476 176 q 392 219 414 176 q 367 392 374 253 q 354 585 364 485 q 351 621 351 618 q 372 658 351 642 q 421 676 396 676 q 472 693 442 676 q 501 722 501 710 q 489 743 501 733 q 474 750 479 750 q 449 742 465 750 q 418 733 432 733 q 364 824 368 733 m 306 985 q 335 988 322 988 q 389 976 382 988 l 392 972 q 400 960 394 967 q 410 946 406 953 q 432 867 428 917 l 438 811 l 478 813 l 486 813 q 529 803 515 813 q 557 764 543 793 q 565 713 565 746 q 551 654 565 664 q 544 631 544 650 q 531 604 544 611 q 476 593 518 597 q 439 587 446 590 q 432 572 432 583 l 432 563 q 435 475 435 535 q 463 265 439 288 q 501 249 482 249 q 559 235 539 249 q 589 192 579 222 q 601 135 601 156 q 585 79 601 113 l 547 4 q 527 -28 535 -21 q 504 -35 519 -35 q 442 -47 492 -35 q 403 -56 418 -56 q 321 -25 381 -56 q 276 8 289 -8 q 244 78 264 25 q 190 444 215 153 l 181 560 l 157 565 q 109 594 133 569 q 79 643 85 618 q 76 672 76 660 q 97 753 76 732 q 154 776 111 764 l 196 790 l 200 847 q 214 919 204 904 q 253 959 225 939 q 306 985 282 979 z "},"u":{"ha":849,"x_min":72,"x_max":774,"o":"m 669 663 q 647 693 661 693 q 629 676 638 693 q 617 532 619 661 q 603 344 614 397 q 556 231 592 292 q 515 172 529 188 q 474 144 501 157 q 410 129 439 129 q 332 150 375 129 q 284 183 299 167 q 254 236 269 199 q 214 517 221 314 q 205 647 211 618 q 179 676 199 676 q 169 646 169 676 q 171 594 169 617 q 203 320 178 467 q 249 133 228 174 q 351 61 282 68 q 374 60 358 60 q 543 138 458 60 q 622 188 594 188 q 646 178 636 188 q 663 151 663 165 q 676 113 663 136 q 700 90 690 90 q 714 110 714 90 q 715 167 715 126 q 690 485 715 324 q 679 597 679 556 q 669 663 679 631 m 143 785 q 168 793 165 793 q 217 771 172 793 q 265 729 261 747 q 269 565 269 714 l 269 547 q 339 217 269 282 q 407 194 361 194 q 461 211 444 194 q 481 240 475 225 q 500 321 486 254 q 508 383 508 363 q 504 424 508 400 q 494 571 494 467 q 511 699 494 672 q 555 742 524 719 q 613 771 586 764 q 628 772 617 772 q 675 763 650 772 q 708 740 700 753 q 729 631 719 725 q 746 496 742 522 q 764 305 754 457 q 774 83 774 153 q 772 57 774 60 q 739 -3 764 29 q 694 -43 714 -36 q 653 -51 669 -51 q 597 -14 625 -51 q 571 32 571 19 q 567 40 571 40 q 531 15 560 40 q 490 -10 503 -10 q 478 -18 478 -10 q 428 -43 478 -25 q 336 -58 385 -58 q 229 -39 279 -58 q 124 111 153 -8 q 83 308 92 242 q 74 504 75 375 l 72 672 l 96 724 q 143 785 119 776 z "},"v":{"ha":857,"x_min":75,"x_max":782,"o":"m 717 643 q 717 660 717 650 q 718 674 718 669 q 715 700 718 694 q 701 707 711 706 l 696 707 q 654 674 672 707 q 608 554 636 642 q 458 229 513 242 q 442 228 453 228 q 346 338 381 228 q 253 576 286 517 q 179 668 203 668 q 174 654 168 668 q 192 582 181 633 q 232 464 206 522 q 308 283 293 333 q 336 211 325 233 q 395 124 350 182 q 450 65 440 65 q 490 114 457 65 q 546 207 524 163 q 585 267 569 251 q 697 529 626 310 q 717 643 714 578 m 685 779 q 706 782 696 782 q 771 761 757 782 q 782 699 782 746 q 739 468 782 582 q 564 92 626 172 q 522 19 536 54 q 496 -18 504 -18 q 465 -35 485 -18 q 429 -47 447 -47 q 407 -46 415 -47 q 344 -28 365 -40 q 304 15 322 -15 q 272 68 299 25 q 235 136 244 111 q 207 190 221 172 q 188 229 188 221 q 167 271 188 238 q 108 415 138 314 q 75 585 78 515 l 75 611 q 124 738 75 714 q 188 751 154 751 q 244 728 222 751 q 300 638 268 703 q 350 513 332 572 q 411 353 397 357 l 413 353 q 454 405 422 353 q 519 529 486 457 q 624 731 599 692 q 685 779 650 769 z "},"w":{"ha":1178,"x_min":75,"x_max":1101,"o":"m 1043 668 q 1029 688 1043 688 q 1008 669 1014 688 q 975 611 999 649 q 951 563 951 575 q 939 533 951 546 q 910 458 924 518 q 853 314 886 371 q 790 257 819 257 q 750 281 774 257 q 722 325 726 304 q 669 441 713 372 q 590 529 625 510 q 563 539 575 539 q 540 533 551 539 q 491 488 511 522 q 446 374 471 453 q 403 267 419 293 q 363 240 388 240 q 326 266 339 240 q 286 383 313 292 q 239 521 261 481 q 222 565 222 551 q 203 607 222 579 q 175 635 185 635 q 165 617 165 635 q 247 313 165 578 q 310 147 279 213 q 357 82 340 82 q 397 112 372 82 q 428 167 422 142 q 446 215 433 194 q 490 328 449 221 q 526 421 522 417 q 556 428 535 428 q 597 418 579 428 q 660 347 632 397 q 732 183 689 297 q 767 122 744 150 q 806 93 790 93 l 810 93 q 907 272 831 100 q 1004 531 983 444 q 1029 618 1011 564 q 1043 668 1043 660 m 974 732 q 1044 760 1014 760 q 1085 743 1068 760 q 1101 699 1101 726 q 1089 631 1101 674 q 949 203 1014 333 q 910 100 919 142 q 874 6 899 46 q 826 -35 849 -35 q 792 -46 814 -35 q 771 -53 778 -53 q 735 -43 764 -53 q 686 -11 703 -32 q 651 61 669 10 q 538 289 572 289 l 536 289 q 501 199 531 288 q 454 88 475 118 q 425 36 438 65 q 376 -20 411 3 q 306 -43 340 -43 q 271 -33 285 -43 q 232 17 250 -21 q 193 92 215 50 q 173 140 181 115 q 156 203 165 165 q 143 257 147 240 q 100 417 110 378 q 75 556 75 518 q 78 604 75 565 q 98 695 83 672 q 156 724 113 718 q 172 725 161 725 q 256 675 231 725 q 335 439 288 615 q 353 394 347 394 q 382 443 361 394 q 467 557 407 504 q 569 610 526 610 q 650 569 610 610 q 742 435 690 528 q 779 393 765 393 q 842 507 800 393 q 974 732 911 689 z "},"x":{"ha":728,"x_min":75,"x_max":653,"o":"m 292 588 q 235 664 274 624 q 182 704 197 704 l 181 704 q 167 682 167 700 q 183 640 167 661 q 221 569 199 624 q 265 503 240 522 q 289 450 289 483 q 247 322 289 406 q 208 238 208 247 q 192 210 208 229 q 161 125 179 192 q 160 115 160 121 q 163 110 160 110 q 190 133 169 110 q 229 189 211 157 q 294 295 258 242 q 339 353 329 349 q 350 356 347 356 q 400 317 382 356 q 442 254 419 282 q 468 213 468 219 q 491 170 468 204 q 529 119 514 136 q 547 118 543 107 q 549 126 549 119 q 527 199 549 150 q 481 282 506 249 q 429 406 429 350 q 431 422 429 417 q 525 576 442 465 q 575 660 575 642 q 568 671 575 667 q 564 672 567 672 q 497 620 544 672 q 436 532 449 568 q 416 493 425 503 q 388 483 407 483 q 339 506 369 483 q 308 540 308 528 q 292 588 308 557 m 157 763 q 181 764 165 764 q 325 654 260 764 q 365 597 349 614 q 381 589 374 589 q 425 633 392 589 q 521 725 460 678 q 585 743 546 743 q 615 736 607 743 q 642 689 631 726 q 653 613 653 651 q 567 472 653 569 q 535 424 535 438 q 522 400 535 410 q 511 382 511 392 q 540 321 511 369 q 596 200 572 267 q 619 92 619 133 q 599 24 619 44 q 519 0 578 3 q 508 -1 515 0 q 497 -1 500 -1 q 448 13 461 -1 q 428 67 435 26 q 398 136 422 100 q 358 174 374 172 q 303 82 350 174 q 250 24 282 43 q 217 -4 217 3 q 176 -10 217 -10 q 113 10 132 -8 q 89 76 93 29 q 88 107 88 89 q 126 190 88 146 q 165 253 154 221 q 188 358 188 301 q 183 379 188 378 q 175 419 175 385 q 147 493 175 456 q 75 665 75 589 q 83 704 75 688 q 116 742 93 724 q 157 763 139 760 z "},"y":{"ha":935,"x_min":81,"x_max":858,"o":"m 806 707 q 781 726 801 726 q 751 716 761 726 q 722 664 742 706 q 698 612 715 647 q 678 571 681 576 q 658 518 658 529 q 594 363 658 493 q 544 300 576 325 q 483 275 513 275 q 460 280 467 275 q 446 301 453 285 q 385 454 390 432 q 324 584 381 469 q 260 708 268 699 q 246 703 256 713 q 242 690 242 699 q 256 630 242 669 q 278 581 271 590 q 324 440 306 536 q 349 363 335 389 q 369 308 365 329 q 407 258 375 285 q 461 232 439 232 q 499 161 499 232 q 490 97 499 122 q 449 24 481 72 q 433 -1 443 15 q 415 -30 422 -18 q 403 -47 407 -42 q 338 -132 365 -108 q 276 -156 311 -156 q 243 -151 261 -156 q 200 -146 219 -146 q 190 -147 192 -146 q 189 -153 189 -149 q 202 -181 189 -164 q 231 -206 215 -197 q 264 -214 247 -214 q 325 -192 294 -214 q 357 -178 344 -178 q 385 -157 372 -178 q 410 -136 397 -136 q 485 -39 438 -136 q 546 85 503 0 q 623 238 589 169 q 663 325 657 307 q 692 396 665 339 q 721 458 699 410 q 753 529 743 507 q 807 693 807 651 q 806 707 807 703 m 214 771 q 244 785 232 785 q 282 776 256 785 q 344 679 328 764 q 376 601 349 654 q 461 422 447 476 q 476 399 468 399 q 547 496 492 399 l 657 715 q 774 781 682 764 q 794 783 790 783 q 835 758 811 783 q 858 699 858 731 q 846 622 858 672 q 792 477 835 582 q 740 363 750 372 q 733 342 733 353 q 714 286 733 328 q 536 -71 704 265 q 515 -118 515 -112 q 488 -157 515 -124 q 454 -208 460 -190 q 429 -235 450 -225 q 354 -283 383 -258 q 291 -313 336 -299 q 214 -328 246 -328 q 152 -303 188 -328 q 94 -243 117 -278 q 81 -193 81 -224 q 113 -115 81 -147 q 144 -94 131 -97 q 214 -90 158 -90 q 300 -78 286 -90 q 369 17 324 -58 q 415 114 415 93 q 390 128 415 122 q 361 142 367 132 q 340 149 357 149 q 296 193 326 149 q 247 294 247 267 q 210 426 247 317 q 160 640 160 568 q 168 697 160 672 q 187 746 179 735 q 214 771 194 757 z "},"z":{"ha":769,"x_min":75,"x_max":690,"o":"m 558 681 l 546 706 l 388 707 l 313 707 q 172 692 211 707 q 147 676 147 683 q 250 665 147 665 q 333 667 301 665 l 378 667 q 451 656 436 667 q 467 610 467 646 q 456 560 467 582 q 399 471 446 539 q 318 346 329 368 q 277 288 317 343 q 201 180 238 233 q 165 118 165 126 q 183 97 165 103 q 251 92 201 92 q 336 94 267 92 q 442 98 371 96 q 529 101 513 100 q 606 114 586 103 q 625 154 625 125 q 614 188 625 183 l 607 188 q 375 157 517 188 q 332 151 351 151 q 299 165 308 151 q 290 211 290 178 q 315 285 290 254 q 372 367 340 311 q 479 529 415 440 l 563 646 q 558 681 569 657 m 581 771 q 590 776 589 776 q 624 744 597 776 q 651 668 651 710 q 622 552 651 618 q 554 454 592 486 q 533 425 544 447 q 494 381 522 404 q 430 309 467 357 q 390 244 393 261 q 389 240 390 243 l 389 238 q 403 231 389 231 q 463 236 422 231 q 576 247 529 244 l 647 251 l 671 224 q 690 181 690 203 q 689 158 690 168 q 661 75 682 114 q 603 14 640 31 q 471 -3 567 -3 l 401 -3 q 372 -2 389 -3 q 350 -1 356 -1 q 288 -6 317 -1 q 219 -14 258 -11 q 182 -15 206 -15 q 109 3 128 -15 q 89 72 90 22 q 175 231 89 133 q 232 306 206 267 q 290 394 258 344 q 343 475 322 444 q 375 533 375 528 q 338 547 375 547 q 317 546 324 547 q 169 536 244 536 q 111 542 121 536 q 75 629 75 560 q 118 743 75 708 l 143 764 l 360 764 q 581 771 574 764 z "},"":{"ha":347,"x_min":0,"x_max":0,"o":""}}}
